<svg xmlns="http://www.w3.org/2000/svg" viewBox="0 0 95.91 53.7"><defs><style>.cls-1{fill:#1d3557;}</style></defs><title>logo</title><g id="Layer_2" data-name="Layer 2"><g id="Layer_3" data-name="Layer 3"><path class="cls-1" d="M28.55,11.49a21.59,21.59,0,0,0-2.18.3s-.15.22-.26.26a2.18,2.18,0,0,1-.48.14c-.48.11-1,.19-1.4.26l-2.66.44c-.63.08-1.7-.11-2,.56a2.35,2.35,0,0,0-.08.55,7.56,7.56,0,0,1-.66,1.26l-1.4,2.8c-.71,1.3-1.19,2.7-1.78,4a18.7,18.7,0,0,0-1,2.36,13.43,13.43,0,0,1-.52,1.92c-1.22,3-2.66,5.87-3.77,8.9-.81,2.14-2.43,6.65-5.43,6.39a4.92,4.92,0,0,1-3.8-2.77A10.51,10.51,0,0,1,0,34.83c0-.26,0-.7.15-.89.48-.51,1.07.37,1.33.74A16.86,16.86,0,0,0,4.4,38.45c.59.44.74.48,1.18-.11a12.9,12.9,0,0,0,2-4.1C8.72,30.8,10.05,27.41,11.38,24s2.51-6.83,4.13-10.12c-.63.11-1.25.19-1.88.26s-.81.26-1.29.37a17.9,17.9,0,0,1-2.44.33,7,7,0,0,1-2.77,0c-.89-.25-2.33-1.51-1-2.17a3.92,3.92,0,0,1,1.4-.34,53.15,53.15,0,0,1,5.28-.73,19.45,19.45,0,0,0,2.07-.3A6.23,6.23,0,0,1,16,11.05c.33,0,1,0,1.25-.15.48-.3.48-.89.74-1.18a2.37,2.37,0,0,1,2.21-.3,2.88,2.88,0,0,1,1.26.93c.22.22-.11.14.22.25a2,2,0,0,0,.7-.07c.45,0,.89,0,1.33-.07a49.69,49.69,0,0,1,5.32,0,4,4,0,0,0,.59.07c.07,0,.11-.26.3-.22a.4.4,0,0,1,.33.33C30.28,11.31,29,11.42,28.55,11.49Zm-9.9,2.4a30.23,30.23,0,0,0-2.58,4.32c-.67,1.52-2.26,5.84-3,7.72.71-1.59,2.52-5.72,3.07-6.72C17,17.51,17.69,15.59,18.65,13.89Z"/><path class="cls-1" d="M34.9,28.81a11.54,11.54,0,0,1-1,2.22c-.55.88-1.15,1.77-1.74,2.62a27.94,27.94,0,0,1-3.47,4.87,1.91,1.91,0,0,1-1.59.7,2.72,2.72,0,0,1-2-1c-.11-.11-1.11-1-1-1.22l.22.34a3.51,3.51,0,0,1-.26-.59v.14c-.11.11-.4-1.22-.4-1.36a6.22,6.22,0,0,1,.18-1.66c.26-.89.52-1.78.74-2.66a16,16,0,0,1,1.18-2.7A8.32,8.32,0,0,1,26.74,27s-.15.37-.12.41l.56-1.26-.11.11,1.07-2.58a25.2,25.2,0,0,0-3.51,3.95A14.3,14.3,0,0,1,23,29.51c-.23.19-.3.08-.48.3a3.51,3.51,0,0,0-.37.66c-.85,1.4-1.92,2.66-2.81,4l-.66,1.18a1.61,1.61,0,0,1-.23.48A1.17,1.17,0,0,1,16.73,36a1.94,1.94,0,0,1-.37-1.33,18.29,18.29,0,0,1,.52-4.94A69.54,69.54,0,0,1,19.5,19.39a61.64,61.64,0,0,1,3.95-8.49s.18-.81.37-.92a6.86,6.86,0,0,0-.26.7L24,9.83a.11.11,0,0,1-.07,0c0-.66.81-1.66,1.18-2.21.52-.85,1.07-1.66,1.66-2.48A18.64,18.64,0,0,1,30.21,1a3.94,3.94,0,0,1,2.58-1,1.84,1.84,0,0,1,1.29.51c.15.15.82,1.3.59,1.44a3.16,3.16,0,0,0-.22-.55,4.53,4.53,0,0,1,.22,1.85c0-.08,0-.11.08-.11a24.71,24.71,0,0,1-.7,3.69,27.51,27.51,0,0,1-1.44,3.76A35.94,35.94,0,0,1,28,18.17c-.36.41-.85.71-1.18,1s-.63.92-1,1.37a36,36,0,0,1-3.07,3.1,3.61,3.61,0,0,0-1.14,1.73c-.26.78-.48,1.55-.74,2.29-.48,1.48-.93,3-1.33,4.47.63-1,1.29-1.88,2-2.81l-.81,1c-.07,0,4.58-5.72,5.06-6.24,1.11-1.18,3.14-3.73,4.76-1.73.93,1.14.22,2.51-.33,3.62a46.06,46.06,0,0,0-2.73,6.46s.22-.59.33-.52c.22.22-.44,2-.52,2.29s-.29,1.44,0,1.63c.48.33,1.33-.67,1.66-1,1.33-1.3,2.55-2.74,3.77-4.14a21.59,21.59,0,0,1,1.4-1.66c.11-.11.37-.48.56-.48S35.12,28.77,34.9,28.81ZM22.12,21.94c0,.19-.18.78-.11.78-.11,0,1.37-3.92,1.51-4.29.3-.77.74-1.44,1-2.25a16.82,16.82,0,0,1,1.07-2.36c.48-1,5-9.71,4.73-9.9-.08,0-3.62,6.72-3.95,7.46-.74,1.55-1.7,3-2.29,4.65a36.15,36.15,0,0,0-1.92,5.8Zm0,0s0,0,0-.07S22.12,21.9,22.12,21.94ZM31.39,3.77c-1.33,2.11-2.48,4.4-3.62,6.61-1,2-2.18,4.14-3.07,6.17a2,2,0,0,1,.3-.41s-.78,2.18-.89,2.4L23,21.46a47.89,47.89,0,0,0,6.83-9.27c-.74,1.22-1.52,2.44-2.33,3.55L26,17.81l-.66.66.29-.33c.37-.45.71-.89,1-1.33.63-.89,1.25-1.81,1.85-2.73a43.24,43.24,0,0,0,3.21-5.95,26.67,26.67,0,0,0,1.18-3.32c.15-.56.63-2.11.11-2.55s-1.26.89-1.55,1.33c0,0,0,0,0,.11v0s0,0,0,0v0S31.39,3.77,31.39,3.77ZM25,18.91c-.11.11-.18.26-.26.34A2,2,0,0,1,25,18.91ZM31.46,3.7h0v0Z"/><path class="cls-1" d="M50,31.17a26.71,26.71,0,0,1-1.63,3.1,27.91,27.91,0,0,1-2.21,3.14,5.1,5.1,0,0,1-2.7,2.11A2.58,2.58,0,0,1,40.8,37.6c-.88-2.18-.25-4.47.41-6.57a4.77,4.77,0,0,1,0-.6c-.37.56-.89,1.22-1.22,1.74-.45.7-.78,1.4-1.26,2.07-.22.33-3.25,4-3.65,3.36,0,0,.44-.19.4-.26a1.91,1.91,0,0,1-1.55.22c.11.07.19.11.15.11-.85.11-1.51-1.22-1.7-1.81a7.4,7.4,0,0,1,0-3.21,17.49,17.49,0,0,1,2.55-6.31A5.46,5.46,0,0,1,36.08,25a6.32,6.32,0,0,1,.88-.51,2.7,2.7,0,0,1,1.85-.89c1.81,0,2.55,2.07,2.92,3.47.88-1.14,2.47-2.66,3.84-1,.74.89.26,1.56-.15,2.37a16.9,16.9,0,0,0-1.55,4.21c0-.11.15-.67.29-.7.3-.08-2.36,8.27,1.44,3.58,1.15-1.44,2.15-3,3.14-4.47.45-.7.89-1.44,1.37-2.14.22-.3.89-1,.92-.19S50.29,30.47,50,31.17Zm-9.38-2.73c0-.3-.74-2.33-.56-2.47s.37,1,.41,1.1c-.11-.44-.26-1.81-.92-1.81-1.22,0-2.14,2.26-2.55,3.11a21.85,21.85,0,0,0-1.7,5.24c.11-.55,2.25-7.24,2.92-7.2-.52.11-2.48,5.8-2.59,6.31-.07.3-.66,2.22-.11,2.4.37.11,1.26-1,1.44-1.29.7-.85,1.37-1.73,2-2.66l1-1.36a8.65,8.65,0,0,1,.51-.78A.73.73,0,0,0,40.62,28.44Zm.11-.26v.37C40.84,28.44,40.84,28.33,40.73,28.18ZM41.62,30l-.19.26c0,.11-.15.63-.15.63Z"/><path class="cls-1" d="M61.92,31.62c-.81,1-1.55,2.14-2.43,3.1-.67.7-1.78,1.88-2.81,1.55-.22-.08-1.59-.81-1.55-1l.11.08L55,35.12c.18.3-.22-.07-.26-.07a2.84,2.84,0,0,1-.44-.7,2.79,2.79,0,0,1-.23-1.22c0-.41.08-.81.12-1.22a10.17,10.17,0,0,1,.37-2.4c.07-.18.84-2.25,1.1-2.18.08,0-.11.26-.07.3l.52-1c-.08.08-.11.15-.19.19a6.25,6.25,0,0,1,.56-1.07c-.74.85-1.33,1.73-2,2.62A17.48,17.48,0,0,0,53.1,30c-.78,1.33-1.74,2.55-2.37,3.92l-.14-.3c-.67.82-1.66-.14-2-.77a2.37,2.37,0,0,1-.15-1.7,10.63,10.63,0,0,1,.22-1.81c.22-.78.52-1.51.81-2.29s.52-1.55.82-2.33a12.85,12.85,0,0,0,.66-1.58c.11-.41,0-.67.48-1A2,2,0,0,1,52.8,22c.59.11,1.66.74,1,1.66-.26.33-.71.7-1,1.07a2.24,2.24,0,0,0-.44,1.07,5.11,5.11,0,0,1-.52.85,8.27,8.27,0,0,0-.52,1.4,7.56,7.56,0,0,0-.07.82c-.08.77-.33,1.55-.41,2.32,0-.14.3-.4.33-.37s-.36.67-.33.67l2.18-3.18c-.48.63-.85,1.07-.85,1.07S56.5,23.68,57,23.2c1.07-1,2.44-1,3,.77s-1.33,3.07-2.22,4.4a18.87,18.87,0,0,0-1.25,2.4,7.23,7.23,0,0,0-.89,2.36,6.93,6.93,0,0,1,.63-1.59,5,5,0,0,1,1.29-1.95c-.26.48-.55.92-.78,1.36l.19-.22a7.28,7.28,0,0,1-.37,1.33,5.5,5.5,0,0,0-.33,1.4,3.31,3.31,0,0,0,0,.63l0,0s.26-.08.34-.11A6,6,0,0,0,58.16,33c.88-.71,1.73-1.48,2.58-2.22a22.82,22.82,0,0,0,2-1.81c.22-.33.74-.92.92,0S62.37,31,61.92,31.62Z"/><path class="cls-1" d="M78.8,30.18l-3,2.28c-1.11.89-2.18,1.74-3.22,2.66a19,19,0,0,0-1.51,1.26,4.18,4.18,0,0,0-.74,1.74c-1.25,4.24-2.36,8.67-4.58,12.51-.7,1.26-1.29,2.59-2.88,3-1.84.45-3.36-1-4-2.62-.74-1.81,0-3.47,1.07-5a43,43,0,0,1,3-3.88,28.65,28.65,0,0,1,2.36-2.32,29,29,0,0,0,2.51-2.33c.67-.85.85-2.44,1.18-3.51l.82-2.88A36.94,36.94,0,0,1,67.05,35a11.43,11.43,0,0,1-2.91,3.33,1.65,1.65,0,0,1-1.63.22c-.26-.11-1.66-1.37-1.51-1.63,0,0,.07.08.11.08L61,36.75c.07.37-.37-.48-.41-.56a5,5,0,0,1-.18-1.51,13,13,0,0,1,.18-2.4,5.31,5.31,0,0,1,.78-2c0-.11.77-1.33.92-1.25s-.15.26-.11.29l.63-.92a.3.3,0,0,1-.19.11c-.26-.15,3.29-3.95,3.66-4.28a7.61,7.61,0,0,1,2-1.48,2.62,2.62,0,0,1,1-.22c.3,0,.41-.19.67-.26a2.93,2.93,0,0,1,2.77.81c.4.45.63,1.92-.3,2-.22,0-.33-.15-.51-.26l.11.11a11.36,11.36,0,0,0-1.44,0l.48-.19c-2.22.37-4.1,3.07-5.28,4.77a43.66,43.66,0,0,1,3-3.44c-.67.63-2.7,3.22-2.85,3.44a19.13,19.13,0,0,0-2.47,4.69c-.19.52-1,3.62.37,2.58a15,15,0,0,0,2.77-3,.2.2,0,0,1-.11.07c-.11,0,.59-1,.7-1.18l1-1.51c.7-1,1.36-2.07,2.06-3.07.3-.4.78-1.22,1.22-1.4,1.52-.67,3.4.66,2.48,2.21a30.14,30.14,0,0,0-2.63,5.43c.19.11,2.22-1.77,2.55-2,.81-.66,1.63-1.33,2.48-1.92.62-.48,1.29-.88,1.92-1.37.33-.29,1.4-1.36,1.55-.29C79.9,29.51,79.28,29.81,78.8,30.18ZM67.2,39.74a41.72,41.72,0,0,0-4.5,5c-1.15,1.52-3.14,3.88-2.55,6,.89,3.25,3.32-1.18,3.84-2.25a62,62,0,0,0,2.55-6.65,2.65,2.65,0,0,1,.15-.41C66.87,40.85,67.05,40.29,67.2,39.74Zm-1.81-10.6a2.54,2.54,0,0,1-.4.48,6.06,6.06,0,0,0-1.15,1.85,11.94,11.94,0,0,0,.85-1.18Zm-.29,1.37a9.61,9.61,0,0,0-.78,1.22l.33-.48Zm1.44,13.33c-.56,1.48-1.26,2.84-1.92,4.28.33-.59.77-1.14,1.11-1.77a18.81,18.81,0,0,0,.81-2.4Z"/><path class="cls-1" d="M94.93,30.18l-3,2.28c-1.11.89-2.18,1.74-3.21,2.66a19.18,19.18,0,0,0-1.52,1.26,4,4,0,0,0-.73,1.74c-1.26,4.24-2.37,8.67-4.58,12.51-.7,1.26-1.29,2.59-2.88,3-1.85.45-3.36-1-4-2.62-.74-1.81,0-3.47,1.07-5a45,45,0,0,1,3-3.88,28.76,28.76,0,0,1,2.37-2.32,30.51,30.51,0,0,0,2.51-2.33c.66-.85.85-2.44,1.18-3.51l.81-2.88A36.87,36.87,0,0,1,83.19,35a11.61,11.61,0,0,1-2.92,3.33,1.63,1.63,0,0,1-1.62.22c-.26-.11-1.66-1.37-1.52-1.63,0,0,.08.08.11.08l-.11-.26c.08.37-.37-.48-.4-.56a5,5,0,0,1-.19-1.51,13,13,0,0,1,.19-2.4,5.29,5.29,0,0,1,.77-2c0-.11.78-1.33.93-1.25s-.15.26-.11.29l.62-.92a.28.28,0,0,1-.18.11c-.26-.15,3.29-3.95,3.65-4.28a7.78,7.78,0,0,1,2-1.48,2.71,2.71,0,0,1,1-.22c.29,0,.4-.19.66-.26a2.92,2.92,0,0,1,2.77.81c.41.45.63,1.92-.29,2-.22,0-.34-.15-.52-.26l.11.11a11.36,11.36,0,0,0-1.44,0l.48-.19c-2.21.37-4.1,3.07-5.28,4.77.33-.41,2.33-2.88,3-3.44-.66.63-2.69,3.22-2.84,3.44a19.17,19.17,0,0,0-2.48,4.69c-.18.52-1,3.62.37,2.58a15,15,0,0,0,2.77-3,.15.15,0,0,1-.11.07c-.11,0,.59-1,.7-1.18l1-1.51c.7-1,1.37-2.07,2.07-3.07.29-.4.77-1.22,1.22-1.4,1.51-.67,3.39.66,2.47,2.21a29.43,29.43,0,0,0-2.62,5.43,18,18,0,0,0,2.55-2c.81-.66,1.62-1.33,2.47-1.92.63-.48,1.29-.88,1.92-1.37.33-.29,1.4-1.36,1.55-.29C96,29.51,95.41,29.81,94.93,30.18ZM83.34,39.74a42.68,42.68,0,0,0-4.51,5c-1.14,1.52-3.14,3.88-2.55,6,.89,3.25,3.33-1.18,3.85-2.25a59.92,59.92,0,0,0,2.54-6.65c0,.07.15-.44.15-.41C83,40.85,83.19,40.29,83.34,39.74Zm-1.81-10.6a2.55,2.55,0,0,1-.41.48A6,6,0,0,0,80,31.47a13.84,13.84,0,0,0,.85-1.18Zm-.3,1.37a10.76,10.76,0,0,0-.77,1.22l.33-.48Zm1.44,13.33c-.55,1.48-1.25,2.84-1.92,4.28.34-.59.78-1.14,1.11-1.77a18.81,18.81,0,0,0,.81-2.4Z"/></g></g></svg>