<svg id="layer" xmlns="http://www.w3.org/2000/svg" viewBox="0 0 450 450"><defs><style>.cls-1{fill:#5d5d5d;}</style></defs><title>pattern</title><path class="cls-1" d="M185.14,371.94c-5.07-7.35-18.42-10.69-28.67-10.69a41.91,41.91,0,0,0-8.71.85c-9.64,2.08-17.87,3.95-25.12,5.59-19.44,4.42-31.17,7.08-40.92,7.08-8.12,0-15.08-1.81-24.82-6.47a231.32,231.32,0,0,1-23.63-13.19c-9.41-5.83-15.62-9.68-24.13-9.68A36.06,36.06,0,0,0,0,346.74v.72a35.83,35.83,0,0,1,9.14-1.33c8.31,0,14.45,3.81,23.76,9.57a232.21,232.21,0,0,0,23.7,13.24c9.84,4.7,16.88,6.53,25.12,6.53,9.83,0,21.59-2.67,41.07-7.09,7.26-1.65,15.48-3.52,25.12-5.59a40.46,40.46,0,0,1,8.56-.84c10.07,0,23.16,3.25,28.1,10.38A11,11,0,0,1,185.62,383c-2.94,7.8-16.69,14.68-28.83,20.76-7.33,3.67-14.26,7.14-17.82,10.36-10.41,9.42-7.91,22.17-3.69,35.92H136c-4.2-13.61-6.73-26.22,3.42-35.4,3.49-3.15,10.38-6.6,17.67-10.25,12.24-6.14,26.13-13.09,29.17-21.14A11.59,11.59,0,0,0,185.14,371.94Z"/><path class="cls-1" d="M3.18,291.9c1.42-30.84,21.08-53.33,36.88-71.4l1.12-1.28c1.83-1.93,6.06-7.09,5.73-13.32-.2-3.8-2.08-7.23-5.58-10.21-2.11-1.78-4-3.45-5.9-5a274.08,274.08,0,0,0-24.65-19.5c-3.66-2.54-7.26-5-10.78-7.2v.35c3.46,2.23,7,4.59,10.61,7.09a274.71,274.71,0,0,1,24.63,19.49c1.85,1.59,3.79,3.26,5.89,5,3.44,2.92,5.28,6.29,5.48,10C46.94,212,42.77,217.11,41,219l-1.13,1.29C24,238.41,4.3,260.94,2.88,291.89c-.16,3.29-1.44,5.31-2.88,6v.36C1.56,297.6,3,295.56,3.18,291.9Z"/><path class="cls-1" d="M178.33,418.77a6.87,6.87,0,0,0-5.07-2c-6.29,0-14.15,6.21-16.78,9.05-9.66,10.45-10.77,16.3-8.84,24.17h.52c-1.92-7.77-.84-13.53,8.69-23.83,2.58-2.79,10.29-8.89,16.41-8.89a6.42,6.42,0,0,1,4.72,1.84c2.09,2.09,3.13,6,3.1,11.55A85.16,85.16,0,0,1,178.41,450h.52a85.56,85.56,0,0,0,2.65-19.33C181.61,425,180.52,421,178.33,418.77Z"/><path class="cls-1" d="M10.17,292.22c1.31-28.4,20.08-49.86,35.16-67.11l1.13-1.29a116.17,116.17,0,0,0,7.62-9.54c2.35-3.36,6.72-9.61-3.6-19.56a286.61,286.61,0,0,0-35.71-29.33Q7.08,160.07,0,155.75v.35q7,4.29,14.6,9.54a286.8,286.8,0,0,1,35.67,29.29c10.13,9.78,5.86,15.89,3.57,19.18a117.63,117.63,0,0,1-7.61,9.52l-1.13,1.29C30,242.2,11.18,263.71,9.87,292.21c-.61,13.22-3,20.91-7.39,24.21A5.09,5.09,0,0,1,0,317.51v.31a5.37,5.37,0,0,0,2.66-1.16C7.17,313.31,9.55,305.54,10.17,292.22Z"/><path class="cls-1" d="M132.23,89.09C130.28,81.41,114.6,79.36,96.45,77c-4.49-.58-9.13-1.19-13.63-1.9-19.91-3.14-38.13-13.14-55.75-22.8C18.24,47.44,9.23,42.5,0,38.43v.77c9.1,4,18,8.91,26.73,13.69,17.67,9.7,36,19.72,56,22.88,4.51.71,9.16,1.32,13.65,1.91,17.15,2.24,33.36,4.36,35.19,11.58,1.42,5.62-5.9,14.15-22.38,26.07C86,132.05,66.63,139.84,48.09,139.84A67.67,67.67,0,0,1,17,132.07,119.11,119.11,0,0,1,0,121v.88a117.66,117.66,0,0,0,16.73,10.8,68.32,68.32,0,0,0,31.36,7.85h0c18.69,0,38.23-7.83,61.48-24.65C126.55,103.62,133.75,95.1,132.23,89.09Z"/><path class="cls-1" d="M2.59,246.93a99.62,99.62,0,0,1,9.57-13.2c4.87-6,9.91-12.2,12.63-19.82,4.78-13.43-4.6-19.64-14.52-26.21l-2.76-1.84c-1.64-1.11-3.18-2.15-4.7-3.21-.75-.52-1.67-1.18-2.81-2V181q1.58,1.16,2.64,1.89c1.52,1,3.06,2.1,4.71,3.21L10.1,188c9.83,6.5,19.11,12.65,14.4,25.86-2.69,7.57-7.72,13.76-12.57,19.73a99.57,99.57,0,0,0-9.6,13.24A44.49,44.49,0,0,0,0,252v.81l.24-.61A45.53,45.53,0,0,1,2.59,246.93Z"/><path class="cls-1" d="M316.38,420.38c-.39-3.38-2.51-6.32-6.33-8.72-6.89-4.34-21.31-6.28-32.55-6.28-2.19,0-4.2.07-6,.22a183.69,183.69,0,0,0-34.91,6.61c-1.79.51-3.58,1.06-5.3,1.63-20.89,6.93-33,17.91-38.77,36.16h.53c5.78-18,17.75-28.83,38.4-35.69,1.71-.56,3.49-1.11,5.27-1.62a182.72,182.72,0,0,1,34.82-6.59c1.76-.15,3.75-.22,5.93-.22,11.17,0,25.48,1.92,32.29,6.2,3.67,2.32,5.73,5.13,6.09,8.36.92,8.1-8.53,17.61-16.13,25.26-1.53,1.54-3,3-4.21,4.3h.69c1.17-1.23,2.47-2.54,3.87-3.95C307.78,438.33,317.33,428.72,316.38,420.38Z"/><path class="cls-1" d="M125.38,395a9.38,9.38,0,0,1,5.11-1.16c.76,0,1.52,0,2.33.08s1.64.07,2.47.07a12.09,12.09,0,0,0,6.49-1.54c5.69-3.52,7.57-7.61,6.91-9.91-.43-1.53-1.91-2.4-4.05-2.4a17.08,17.08,0,0,0-7,2,20.11,20.11,0,0,0-4.74,3.74c-1.81,1.73-3.67,3.52-5.8,4.1a7.46,7.46,0,0,1-2,.27,13.93,13.93,0,0,1-3.84-.71,14.18,14.18,0,0,0-4-.74,7.45,7.45,0,0,0-1.49.14c-2.54.47-4.27,2.08-6,3.64a14.18,14.18,0,0,1-4.75,3.3,27.84,27.84,0,0,1-8.91,1.11,137.18,137.18,0,0,1-15-1.13l-3.53-.39c-9.26-.92-18.88-3.82-29.42-8.86a250.33,250.33,0,0,1-25.56-14.25A20.17,20.17,0,0,0,12,369a19.42,19.42,0,0,0-12,4.37v.37a19.21,19.21,0,0,1,12-4.44,19.85,19.85,0,0,1,10.5,3.23A248.58,248.58,0,0,0,48.06,386.8c10.57,5.05,20.23,8,29.52,8.89l3.52.39a140.48,140.48,0,0,0,15,1.13,28.16,28.16,0,0,0,9-1.13,14.21,14.21,0,0,0,4.85-3.36c1.72-1.6,3.35-3.11,5.8-3.57a7.71,7.71,0,0,1,1.44-.13,14.33,14.33,0,0,1,3.93.72,14.1,14.1,0,0,0,3.93.73,7.71,7.71,0,0,0,2.07-.28c2.21-.61,4.1-2.42,5.92-4.17a19.89,19.89,0,0,1,4.67-3.69,16.83,16.83,0,0,1,6.88-1.94c2,0,3.36.77,3.76,2.18.63,2.2-1.22,6.14-6.78,9.57a11.73,11.73,0,0,1-6.33,1.5c-.82,0-1.65,0-2.46-.07s-1.58-.08-2.34-.08a9.75,9.75,0,0,0-5.27,1.2c-1.85,1.17-3.26,4.1-4.62,6.95a30,30,0,0,1-2.42,4.46c-6.84,9.32-7.26,19.36-5.78,31.55A98.69,98.69,0,0,0,114.78,450h.32a96.35,96.35,0,0,1-2.4-12.38c-1.47-12.13-1.06-22.1,5.73-31.34a30.63,30.63,0,0,0,2.45-4.51C122.22,399,123.6,396.06,125.38,395Z"/><path class="cls-1" d="M156.74,60.93c-1.72,0-4.15,1.09-5.93,6.32-2,5.88,1.86,7.25,5.95,8.69.72.26,1.47.52,2.18.81a11.44,11.44,0,0,0,4,1,2.74,2.74,0,0,0,2.52-1.19c1.53-2.42-.92-7.79-2.05-10C161.63,63,159.12,60.93,156.74,60.93Zm8.34,15.35c-.8,1.27-2.82,1.26-6,0-.73-.29-1.48-.55-2.2-.81-4-1.42-7.5-2.65-5.65-8.06,1.34-3.91,3.23-6,5.46-6s4.53,2,6.26,5.35C165.27,71.2,166,74.75,165.08,76.28Z"/><path class="cls-1" d="M27,224.91l1.35-1.6c6.44-7.57,13.1-15.4,5.53-24.77-5.85-7.24-14.68-13.21-22.47-18.48C9.82,179,8.3,177.94,6.8,176.9c-1-.7-2.38-1.7-4-2.85L0,172v.37l2.66,1.94c1.59,1.16,3,2.15,4,2.85,1.51,1.05,3,2.08,4.65,3.17,7.77,5.26,16.59,11.22,22.41,18.42,7.41,9.17.83,16.91-5.52,24.39-.46.53-.92,1.07-1.36,1.6-5.59,6.66-12.73,15.59-18.38,25.52A106.29,106.29,0,0,0,0,269.11v1a104.91,104.91,0,0,1,8.68-19.71C14.31,240.48,21.44,231.57,27,224.91Z"/><path class="cls-1" d="M162.63,448.33a12.65,12.65,0,0,0-1.91-3.84c-1.11-1.67-2.06-3.11-1.68-5.85.52-3.73,5-12.95,9.92-12.95h.14c2.44.09,4,.71,4.61,1.83,1.12,2.05-.91,5.53-2.54,8.32a14.11,14.11,0,0,0-1.79,3.67,4.24,4.24,0,0,0,1.21,3.59,3.77,3.77,0,0,1,1.09,2.47,5.75,5.75,0,0,1-2,4.27l-.14.15h.41a5.92,5.92,0,0,0,2.06-4.41,4,4,0,0,0-1.16-2.67,4,4,0,0,1-1.14-3.36,14.35,14.35,0,0,1,1.75-3.56c1.67-2.86,3.75-6.41,2.54-8.62-.68-1.23-2.27-1.88-4.86-2H169c-5,0-9.69,9.4-10.22,13.21-.39,2.85.64,4.41,1.73,6.06a12.35,12.35,0,0,1,1.87,3.74,8.63,8.63,0,0,1,.3,1.6h.3A8.42,8.42,0,0,0,162.63,448.33Z"/><path class="cls-1" d="M21.33,123.7c7.6,3.9,14.06,5.71,20.32,5.71,6.56,0,12.39-2,19.14-4.25,3.83-1.29,8.17-2.76,13.1-4a25,25,0,0,1,6.09-.7c1,0,1.87,0,2.75.08s1.63.06,2.42.06c4,0,7.27-1,10.8-5.73A27.22,27.22,0,0,0,100,107c1.18-3.28,2.11-5.87,7.29-9.58A24.74,24.74,0,0,1,112.39,95c3-1.17,5.52-2.18,5.63-3.88.08-1.38-1.53-2.93-5.07-4.85-4.24-2.31-10.3-2.62-15.67-2.62-2.39,0-4.9.07-7.33.15s-5,.14-7.39.14A46.82,46.82,0,0,1,70.32,82.7C52.92,78,36.6,69,22.21,61.13,14.65,57,7.32,53,0,49.52v.56c7.24,3.42,14.49,7.39,22,11.49,14.42,7.91,30.76,16.87,48.22,21.62a47.86,47.86,0,0,0,12.37,1.22c2.43,0,5-.07,7.4-.14s4.94-.15,7.32-.15c5.31,0,11.28.3,15.43,2.55,3.26,1.78,4.88,3.25,4.81,4.39-.09,1.39-2.63,2.38-5.32,3.44A25.2,25.2,0,0,0,107,97c-5.31,3.79-6.31,6.58-7.47,9.81a27.09,27.09,0,0,1-4,7.78c-3.41,4.6-6.51,5.52-10.4,5.52-.78,0-1.56,0-2.4-.06S80.94,120,80,120a25.26,25.26,0,0,0-6.22.72c-4.94,1.24-9.29,2.71-13.13,4-6.71,2.26-12.5,4.22-19,4.22-6.18,0-12.56-1.8-20.09-5.65C14.68,119.73,8.49,115,2.5,110.5L0,108.61v.63l2.2,1.66C8.2,115.45,14.41,120.16,21.33,123.7Z"/><path class="cls-1" d="M264.68,436.08a5.88,5.88,0,0,0-2.22-.32c-5.8,0-18.09,3.46-18.22,3.5-1.37.39-2.74.81-4.07,1.25-6.8,2.26-11.83,5.28-15.49,9.49h.39c3.62-4.07,8.56-7,15.2-9.21,1.32-.43,2.68-.85,4.06-1.24.12,0,12.37-3.49,18.13-3.49a5.69,5.69,0,0,1,2.1.29c2.23,1,1.41,3.49-.38,9-.43,1.33-.93,2.89-1.44,4.62h.31c.51-1.69,1-3.22,1.42-4.52C266.26,439.92,267.16,437.14,264.68,436.08Z"/><path class="cls-1" d="M251.11,445.08a19,19,0,0,0-5,.82c-1.28.36-2.55.75-3.77,1.16A36.89,36.89,0,0,0,235.6,450h1.05a38.26,38.26,0,0,1,5.86-2.47c1.21-.4,2.48-.79,3.75-1.15a18.43,18.43,0,0,1,4.85-.8c2.5,0,4,.91,4.49,2.71a5.83,5.83,0,0,1,.15,1.71h.5a6.38,6.38,0,0,0-.16-1.84C255.71,446.76,254.53,445.08,251.11,445.08Z"/><path class="cls-1" d="M282.52,428.55c-.87-1.75-3.87-2.37-9.24-1.92a162,162,0,0,0-30.92,5.89c-1.5.42-3,.87-4.39,1.35-10.17,3.37-17.27,8.55-21.88,16.13h.35c4.59-7.43,11.6-12.52,21.62-15.85,1.42-.47,2.89-.92,4.38-1.34a161.54,161.54,0,0,1,30.86-5.88c1.1-.1,2.11-.14,3-.14,3.36,0,5.31.62,5.95,1.9,1.11,2.24-2,6.41-5.08,10.43-.53.72-1.07,1.43-1.6,2.14a92.72,92.72,0,0,0-5.67,8.74h.34a95.29,95.29,0,0,1,5.57-8.56c.53-.71,1.07-1.42,1.6-2.14C280.66,435,283.72,431,282.52,428.55Z"/><path class="cls-1" d="M292.62,433.7c4.61-4.34,6.46-7.76,5.5-10.19-1.15-2.89-6.23-4.35-15.12-4.35-3,0-6.33.16-10.3.49a169.4,169.4,0,0,0-32.24,6.13c-1.58.45-3.16.93-4.7,1.44C222.43,431.65,213.42,439,208.12,450h.34c5.28-10.83,14.2-18.11,27.4-22.49,1.53-.51,3.1-1,4.68-1.44A168.78,168.78,0,0,1,272.72,420c4-.33,7.33-.49,10.28-.49,8.75,0,13.74,1.4,14.84,4.16.91,2.3-.92,5.62-5.43,9.86-.91.85-1.78,1.68-2.52,2.42a90.72,90.72,0,0,0-8.66,9.5c-1.11,1.5-2.15,3-3.17,4.6h.36c1-1.5,2-3,3.05-4.42a89.2,89.2,0,0,1,8.64-9.47C290.84,435.37,291.71,434.55,292.62,433.7Z"/><path class="cls-1" d="M25.94,114.71a47.62,47.62,0,0,0,22.15,5.63c4.21,0,13.29-1.71,21.22-4.59,6.94-2.52,15.22-6.7,15.23-12.32,0-6.62-12.76-10.3-20.4-12.5-1.66-.48-3.1-.89-4-1.24A299.66,299.66,0,0,1,17.35,70C11.45,66.75,5.68,63.59,0,60.75v.34c5.63,2.82,11.35,6,17.21,9.16A300.16,300.16,0,0,0,60,90c1,.36,2.41.77,4.08,1.25,7.56,2.17,20.21,5.81,20.19,12.21,0,9.72-27.44,16.61-36.17,16.61a47.48,47.48,0,0,1-22-5.59c-6.11-3.13-11.94-7.56-17.59-11.84-2.73-2.07-5.54-4.2-8.48-6.27v.37c2.87,2,5.62,4.11,8.3,6.14C14,107.14,19.8,111.57,25.94,114.71Z"/><path class="cls-1" d="M29.13,108.48a40.81,40.81,0,0,0,19,4.86c5.54,0,12.79-1.64,15.57-5.25a6,6,0,0,0,1-5.48c-1.26-4.85-11.42-8.27-18.83-10.78-2.4-.81-4.47-1.51-5.74-2.1-8.57-4-17-8.62-25.25-13.12l-.91-.5C9.21,73.51,4.57,71,0,68.61v.33c4.52,2.34,9.11,4.86,13.8,7.43l.92.5C22.92,81.37,31.41,86,40,90c1.29.59,3.37,1.29,5.77,2.11,6.94,2.34,17.42,5.88,18.64,10.57a5.73,5.73,0,0,1-1,5.21C60.7,111.43,53.56,113,48.07,113a40.63,40.63,0,0,1-18.81-4.82C23.7,105.37,18.11,101.13,12.71,97,8.8,94.07,4.6,90.89,0,87.89v.36c4.53,3,8.67,6.1,12.53,9C17.94,101.38,23.54,105.62,29.13,108.48Z"/><path class="cls-1" d="M177.48,6c.5-2,1-4,1.45-6h-.52c-.45,1.94-.93,3.89-1.42,5.87-.92,3.71-1.87,7.54-2.64,11.46-2.56,13.05-4.77,30.15,1,46.76,2.32,6.75,8.1,12.26,13.2,17.12,4.55,4.33,8.47,8.07,8.11,11.21-.16,1.45-1.21,2.73-3.22,3.93a9.83,9.83,0,0,1-4.71.83c-7.68,0-21.22-3.39-31.24-6.75C146.54,86.78,133.12,81,131,74c-.67-2.22-.12-4.46,1.62-6.67a103.26,103.26,0,0,1,6.93-7.72c4.55-4.73,8.85-9.2,11.69-15.83a41.45,41.45,0,0,0,1.47-29.33c-.75-2.42-1.5-4.65-2.17-6.62-1-2.91-1.83-5.45-2.42-7.81h-.52c.59,2.41,1.47,5,2.47,8,.66,2,1.41,4.19,2.16,6.61a40.92,40.92,0,0,1-1.45,29c-2.8,6.55-7.07,11-11.59,15.69-2.32,2.41-4.72,4.91-7,7.75-1.84,2.34-2.42,4.74-1.7,7.13,2.14,7.18,15.71,13.09,26.72,16.78,10.06,3.37,23.66,6.77,31.4,6.77a10.18,10.18,0,0,0,5-.9c2.16-1.28,3.29-2.69,3.47-4.3.38-3.39-3.62-7.21-8.26-11.63-5.06-4.82-10.8-10.29-13.08-16.92-5.67-16.5-3.48-33.52-.93-46.51C175.61,13.52,176.56,9.69,177.48,6Z"/><path class="cls-1" d="M94.63,239.88c-.5.82-1,1.61-1.38,2.18-5.06,7.13-11,13.45-17.78,20.39-.91.93-1.84,1.88-2.79,2.83-5.56,5.62-11.32,11.43-14.76,18.3-1.33,2.67-1.74,4.75-1.19,6A2,2,0,0,0,58,290.73a3.24,3.24,0,0,0,.85.11,10,10,0,0,0,4.73-1.72,109.18,109.18,0,0,0,10.61-7.68C77,279.25,79.9,277,82.86,275c12-7.93,19.89-13.17,23.58-28,.77-3.07,1.22-10.06-1.15-13.09a3.65,3.65,0,0,0-3.21-1.48C99,232.64,96.48,236.82,94.63,239.88Zm7.68-7.1a3.34,3.34,0,0,1,2.74,1.36c2.31,3,1.86,9.82,1.1,12.83-3.67,14.68-11.54,19.9-23.45,27.79-3,2-5.86,4.25-8.65,6.44a107.06,107.06,0,0,1-10.59,7.66c-2.24,1.36-4.15,1.93-5.34,1.58a1.66,1.66,0,0,1-1.11-1c-.51-1.16-.09-3.21,1.18-5.75,3.42-6.83,9.16-12.62,14.71-18.23l2.78-2.83c6.75-7,12.75-13.28,17.82-20.42.41-.59.89-1.38,1.39-2.21,1.81-3,4.28-7.1,7.2-7.25Z"/><path class="cls-1" d="M32.27,102.34a32.23,32.23,0,0,0,11.66,2.85,6.08,6.08,0,0,0,3.29-.72c1.59-1,2.29-2,2.14-3-.32-2.1-4.91-3.37-8.59-4.4A28.13,28.13,0,0,1,37.2,96c-8.77-4.07-17.36-8.78-25.65-13.33l-.92-.5C7,80.18,3.49,78.24,0,76.4V77c3.41,1.81,6.87,3.71,10.39,5.64l.92.5C19.61,87.65,28.2,92.37,37,96.45a28,28,0,0,0,3.65,1.15c3.35.94,8,2.21,8.23,4,.11.73-.54,1.56-1.92,2.45a5.58,5.58,0,0,1-3,.64A32.28,32.28,0,0,1,32.5,101.9c-5-2.57-10.34-6.61-15.5-10.52A184.07,184.07,0,0,0,0,79.53v.59A185.22,185.22,0,0,1,16.71,91.78C21.88,95.7,27.23,99.76,32.27,102.34Z"/><path class="cls-1" d="M17.26,292.55c1.2-25.92,19.06-46.35,33.41-62.76l1.13-1.3c17.07-19.53,16.38-26.36,8.37-34.26a309.66,309.66,0,0,0-41.35-34.67C12.42,155.13,6.1,151.07,0,147.47v.58c6,3.56,12.24,7.55,18.53,11.92a309.29,309.29,0,0,1,41.29,34.62c7.78,7.67,8.41,14.34-8.39,33.58l-1.13,1.29c-14.41,16.47-32.34,37-33.54,63.07C15.63,317,6.41,324.21,0,326.23v.52C6.56,324.76,16.11,317.53,17.26,292.55Z"/><path class="cls-1" d="M307.06,419.78c-2.94-6.26-14.82-7.58-24.26-7.58-3.32,0-6.91.16-10.68.47A177,177,0,0,0,238.55,419c-1.69.48-3.37,1-5,1.54-10.4,3.45-18.4,8.44-24.46,15.26A48.51,48.51,0,0,0,200.44,450h.32c5.78-14.28,16.45-23.68,32.89-29.14,1.62-.53,3.3-1.05,5-1.53A176.41,176.41,0,0,1,272.14,413c3.76-.31,7.35-.47,10.66-.47,9.36,0,21.11,1.29,24,7.41,3.15,6.71-4.5,13.9-9.56,18.66-.87.81-1.68,1.57-2.36,2.26a85.46,85.46,0,0,0-8,8.71l-.33.46h.37l.2-.28a86,86,0,0,1,8-8.68c.68-.68,1.49-1.45,2.35-2.25C302.55,434,310.29,426.68,307.06,419.78Z"/><path class="cls-1" d="M101.05,403.63c-4.45-1.14-9.24-1.22-13.86-1.29-2.67,0-5.43-.08-8.06-.33a98,98,0,0,1-34-9.16,256.17,256.17,0,0,1-26.23-14.62A13.31,13.31,0,0,0,12,376c-4.19,0-8.51,2.74-12,7.31v.5c3.45-4.69,7.79-7.51,12-7.51a12.94,12.94,0,0,1,6.8,2.18,258.1,258.1,0,0,0,26.27,14.63,98.41,98.41,0,0,0,34.05,9.19c2.65.25,5.41.29,8.09.33,4.6.07,9.37.15,13.78,1.28,6.88,1.77,6.63,6.79,5.65,12.68-1.16,7-2.13,14-1.17,21.9a102.37,102.37,0,0,0,2.13,11.5h.31a102.66,102.66,0,0,1-2.14-11.54c-1-7.87,0-14.81,1.17-21.81C107.88,410.83,108.16,405.46,101.05,403.63Z"/><path class="cls-1" d="M127.64,8.65c6.85,21.34,9.64,32.94-7.37,42.77A32,32,0,0,1,110.85,55a45.87,45.87,0,0,1-9.59.94c-31.61,0-75-26.42-98.37-40.61l-.8-.48L0,13.53v.59l1.83,1.11.8.49C26,29.94,69.51,56.4,101.26,56.4a46.76,46.76,0,0,0,9.69-.95,32.79,32.79,0,0,0,9.57-3.6c17.34-10,14.53-21.76,7.59-43.35-.88-2.74-1.79-5.59-2.62-8.5H125C125.81,3,126.74,5.87,127.64,8.65Z"/><path class="cls-1" d="M87.72,5.6c.2.76.48,1.68.8,2.72.9,3,.74,4.95-.48,5.93a4.16,4.16,0,0,1-2.65.74c-4.88,0-13-4.36-15.68-5.79-1.3-.7-2.29-1.22-3.06-1.61l-4.1-2c-3.76-1.84-7.43-3.7-11-5.57h-.64c3.71,2,7.55,3.91,11.49,5.84l4.1,2c.77.39,1.75.91,3,1.61,2.69,1.44,10.86,5.82,15.82,5.82a4.43,4.43,0,0,0,2.84-.81c1.32-1.06,1.52-3.16.58-6.25-.32-1-.6-2-.8-2.71C87.53,3.71,87,1.88,86.59,0h-.31C86.74,1.91,87.23,3.77,87.72,5.6Z"/><path class="cls-1" d="M118.21,11.68c2.78,8.64,5.43,19.48,1.28,26.63-2,3.55-5.65,5.89-10.7,7a36.43,36.43,0,0,1-7.52.72C72.42,46,30.54,20.52,8,6.83L3.88,4.31C2.61,3.54,1.31,2.82,0,2.14v.34c1.26.66,2.5,1.35,3.73,2.09L7.88,7.09C30.4,20.79,72.34,46.3,101.27,46.3a36.32,36.32,0,0,0,7.58-.73c5.13-1.09,8.8-3.48,10.9-7.11,4.21-7.26,1.54-18.17-1.25-26.88C117.3,7.85,116.11,4,115.1,0h-.32C115.81,4,117,7.92,118.21,11.68Z"/><path class="cls-1" d="M94.49,3.8c.18.68.43,1.52.73,2.48,1.45,4.76,3.64,12,1.57,15.27a5.89,5.89,0,0,1-3.9,2.62,10.49,10.49,0,0,1-2.33.24c-7.3,0-18.27-5.88-24.16-9-1.14-.61-2.13-1.14-2.87-1.51L63,13.6l-1.62-.8-1.93-1C51.51,8,43.94,4,37,0h-.61c7.1,4.05,14.82,8.14,23,12.12l1.93,1,1.61.8.52.26c.73.37,1.72.89,2.86,1.51,5.91,3.17,16.92,9.07,24.3,9.07a11.15,11.15,0,0,0,2.4-.24A6.21,6.21,0,0,0,97,21.71C99.19,18.28,97,11,95.5,6.19c-.29-1-.54-1.79-.72-2.46-.33-1.23-.66-2.47-1-3.73h-.31C93.82,1.28,94.15,2.55,94.49,3.8Z"/><path class="cls-1" d="M101.25,2c1.42,5.34,2.89,10.85,3,16.55.2,7.36-2.67,11.57-8.52,12.52a18.09,18.09,0,0,1-2.83.21c-10.17,0-24.72-7.26-32.54-11.16l-2.1-1-1.93-.94C44.22,12.18,32.94,6,23.26,0h-.57c9.79,6.08,21.22,12.36,33.56,18.41l1.93.94,2.09,1C68.11,24.3,82.71,31.58,93,31.58a18.43,18.43,0,0,0,2.87-.21c6-1,9-5.3,8.78-12.83-.16-5.73-1.63-11.26-3.06-16.62C101.37,1.29,101.2.64,101,0h-.31C100.9.67,101.07,1.34,101.25,2Z"/><path class="cls-1" d="M111.55,13.82c.14.45.29.91.45,1.37,1.59,4.87,3.25,9.9.58,14.75a17.89,17.89,0,0,1-11.5,8.37c-.49.1-1,.19-1.46.24a31.92,31.92,0,0,1-3.71.21c-13.43,0-29.18-7.74-40.68-13.39l-1.93-.95C38.53,17.19,24.26,8.51,11.67.85L10.27,0H9.69l1.82,1.11c12.6,7.66,26.87,16.34,41.66,23.58l1.93.95C66.62,31.3,82.41,39.06,95.91,39.06a32.49,32.49,0,0,0,3.75-.21c.49-.06,1-.14,1.49-.25a18.22,18.22,0,0,0,11.69-8.51c2.73-5,1.06-10.07-.56-15l-.45-1.38c-1.41-4.38-2.79-9-3.94-13.72h-.31C108.74,4.78,110.13,9.41,111.55,13.82Z"/><path class="cls-1" d="M100.66,223.23c-4.39,1.09-8.22,7.16-11.31,12-1.07,1.71-2.09,3.32-3,4.47a212.23,212.23,0,0,1-16,17.76c-1.41,1.45-3.19,3.1-5.07,4.84-5.58,5.17-12.52,11.6-14.63,17.49-1.77,5-.73,9.68.28,14.25.83,3.75,1.69,7.62,1,11.65-.42,2.5-1.93,5-3.53,7.56-1.92,3.12-3.9,6.34-4,9.81a9.32,9.32,0,0,0,.54,3.46c1.32,3.7,2.7,5.43,4.34,5.43s3.39-1.69,6-5.82c2.5-3.95,3.48-8.52,4.43-12.95s1.94-9,4.46-13c4.8-7.56,13.26-13.14,20.72-18.05l1.87-1.24c12.4-8.21,22.18-14.69,26.55-32.16,1.16-4.62.85-16.4-3.85-22.42A8.05,8.05,0,0,0,100.66,223.23Zm8.43,3.43c4.21,5.4,5,16.81,3.76,22-4.32,17.28-14,23.71-26.35,31.87l-1.86,1.23c-7.51,4.94-16,10.55-20.87,18.2-2.57,4.05-3.56,8.68-4.53,13.17S57.33,322,54.88,325.9c-1.75,2.76-3.78,5.59-5.58,5.59-1.38,0-2.65-1.67-3.87-5.1a8.54,8.54,0,0,1-.51-3.28c.11-3.33,2.06-6.5,3.94-9.56,1.63-2.64,3.17-5.14,3.61-7.74.69-4.12-.18-8.05-1-11.84-1-4.71-2-9.15-.3-14,2.07-5.77,9-12.16,14.5-17.3,1.89-1.74,3.67-3.39,5.09-4.85a213.4,213.4,0,0,0,16-17.8c.91-1.17,1.93-2.8,3-4.51,3-4.81,6.81-10.79,11-11.82a9.09,9.09,0,0,1,2.2-.28A7.56,7.56,0,0,1,109.09,226.66Z"/><path class="cls-1" d="M105.26,201.52a9.06,9.06,0,0,0-6.64-4.34,10.92,10.92,0,0,1-4.87-2L93.6,195c-5.1-5.71-22.2-24.33-28-24.33a1.88,1.88,0,0,0-1.58.72c-.77,1-.73,3,.12,6.21.51,1.89,5.35,4.48,10.48,7.24,4.27,2.29,8.69,4.66,10.19,6.44,1.34,1.59,3.11,3.8,3,4.57,0,.21-.27.33-.66.52-.9.45-2.25,1.12-1.53,4.28a22.62,22.62,0,0,0,3.16,6.44,22.29,22.29,0,0,1,2.83,5.59c1.28,4.92-6.78,13.95-12.11,19.92-1.76,2-3.28,3.68-4.25,5a136.75,136.75,0,0,1-13.4,14.54c-9.11,9-18.53,18.26-21.84,31.07C35,302.33,34,319.24,37,333.44c1.6,7.58,7.12,18.15,12.47,18.15,3.33,0,5.76-4,7.21-11.9,5.6-30.43,20.88-40.55,35.65-50.34,13.09-8.67,25.45-16.86,30.77-38.13,2-8-1.08-20.37-5.09-27.2a21.51,21.51,0,0,0-6.22-6.42,19.56,19.56,0,0,1-5.12-5c-1-1.55-.81-3.36-.63-5.28S106.47,203.26,105.26,201.52Zm.85,11.43a19.78,19.78,0,0,0,5.29,5.2,21,21,0,0,1,6,6.22c3.94,6.71,7,18.82,5,26.68-5.25,21-17.5,29.13-30.48,37.72C77.08,298.64,61.68,308.85,56,339.56c-1.36,7.41-3.62,11.33-6.52,11.33-4.55,0-10.07-9.46-11.79-17.59-3-14.09-2-30.9,2.93-49.94,3.26-12.63,12.61-21.84,21.65-30.75A136.37,136.37,0,0,0,75.76,238c.95-1.26,2.46-3,4.21-4.91,5.76-6.45,13.64-15.29,12.27-20.56a22.5,22.5,0,0,0-2.92-5.79,22.24,22.24,0,0,1-3.07-6.23c-.59-2.62.34-3.08,1.16-3.49.45-.22.92-.46,1-1,.16-.73-.31-1.85-3.1-5.16-1.58-1.88-6.06-4.29-10.39-6.61-4.55-2.44-9.7-5.21-10.13-6.8-1-3.62-.67-5-.24-5.6a1.19,1.19,0,0,1,1-.45c4.37,0,17.06,12.45,27.48,24.1l.21.22a11.78,11.78,0,0,0,5.18,2.17,8.38,8.38,0,0,1,6.22,4c1,1.53.88,3.36.69,5.3S105,211.19,106.11,213Z"/><path class="cls-1" d="M0,136.61c33.72,19.08,70.06,49.44,76.68,64.53,4,9.06-5.66,19.89-17.85,33.6C45,250.32,27.72,269.71,26.65,293,25.34,321.35,11.28,333,0,336.52v.74c11.54-3.52,26-15.32,27.35-44.24,1.06-23,18.22-42.31,32-57.81,12.36-13.9,22.12-24.88,18-34.35C70.65,185.66,34,155,0,135.86Z"/><path class="cls-1" d="M169.87.06l0-.06h-.41a8.07,8.07,0,0,0-1.7,2.39c-1.24,2.92-.89,6-.55,8.91a30.83,30.83,0,0,1,.31,5,54.4,54.4,0,0,1-1.17,7.93c-.42,2.16-.86,4.39-1.07,6.57C164.05,44,165.21,56,168.77,66.34c.74,2.14,3.64,5.45,6.71,9,3.92,4.47,8,9.11,8.14,11.92a1.91,1.91,0,0,1-.49,1.51c-1.06,1.12-3.9,1.33-8.45.61a40.93,40.93,0,0,1-9.55-3.24c-1.79-.78-3.65-1.59-5.5-2.21L158,83.35c-6.65-2.19-15.76-5.2-17.06-10.46-.62-2.51.6-5.38,3.63-8.53,4.77-5,9.7-10.09,13-17.88,3.2-7.47,6.88-22,5.47-29.86a10.12,10.12,0,0,0-1.61-3.75,6.72,6.72,0,0,1-1.32-5.15A8.6,8.6,0,0,1,161.75,4a5.42,5.42,0,0,0,1.19-4h-.3a5.13,5.13,0,0,1-1.14,3.82,8.65,8.65,0,0,0-1.62,3.85A6.89,6.89,0,0,0,161.23,13a9.81,9.81,0,0,1,1.58,3.65c1.4,7.81-2.27,22.26-5.46,29.69-3.32,7.74-8.24,12.85-13,17.79-3.11,3.23-4.35,6.19-3.7,8.81,1.34,5.43,10.54,8.46,17.25,10.68l1.63.54c1.83.61,3.68,1.42,5.47,2.19a40.3,40.3,0,0,0,9.62,3.26,29.41,29.41,0,0,0,4.59.43c2.06,0,3.41-.37,4.13-1.13a2.23,2.23,0,0,0,.57-1.73c-.17-2.91-4.26-7.59-8.22-12.1-3-3.48-5.92-6.77-6.64-8.86-3.56-10.33-4.71-22.24-3.43-35.43.21-2.16.64-4.38,1.07-6.54a55.92,55.92,0,0,0,1.17-8,31.37,31.37,0,0,0-.31-5c-.35-3-.68-5.9.53-8.75A8.2,8.2,0,0,1,169.87.06Z"/><path class="cls-1" d="M137.06,5.62c6.33,19.71,12.87,40.09-11.84,54.37a42.1,42.1,0,0,1-12.31,4.66,56.76,56.76,0,0,1-11.65,1.15C67.85,65.8,26.06,41,0,25.12v.82C26.15,41.82,67.82,66.5,101.26,66.5a56.65,56.65,0,0,0,11.79-1.17,42.84,42.84,0,0,0,12.52-4.73C150.77,46,144.14,25.38,137.73,5.41,137.15,3.59,136.57,1.79,136,0h-.74C135.85,1.86,136.46,3.73,137.06,5.62Z"/><path class="cls-1" d="M95.87,413.11c-3.64-3.37-9.08-3.65-13.88-3.9-1.24-.07-2.4-.13-3.53-.23a104.53,104.53,0,0,1-36.3-9.82,170.17,170.17,0,0,1-23.78-13.37A9.46,9.46,0,0,0,13,384c-4.1,0-8,3.22-10.32,8.6-.9,2-1.78,4-2.68,6v.72c1-2.17,2-4.37,3-6.61C5.26,387.4,9,384.25,13,384.25A9.13,9.13,0,0,1,18.21,386,172.18,172.18,0,0,0,42,399.44a104.93,104.93,0,0,0,36.4,9.83c1.14.11,2.3.17,3.54.24,4.75.25,10.14.53,13.7,3.82,4.12,3.82,3.54,11.07,3,17.46a46.52,46.52,0,0,0-.2,8.55A81.65,81.65,0,0,0,100.72,450H101a80.64,80.64,0,0,1-2.23-10.7,45.79,45.79,0,0,1,.2-8.48C99.52,424.35,100.1,417,95.87,413.11Z"/><path class="cls-1" d="M2.41,430.47c-.88-.35-1.69-.68-2.41-1.05v.33c.71.36,1.48.67,2.29,1,.43.16.86.34,1.3.52a89.71,89.71,0,0,1,15.47,8.05c5.16,3.48,11,7.07,17.31,10.68H37c-6.5-3.7-12.48-7.37-17.76-10.93A90.17,90.17,0,0,0,3.71,431C3.26,430.81,2.83,430.63,2.41,430.47Z"/><path class="cls-1" d="M15.15,445.12c2.38,1.61,4.91,3.24,7.55,4.88h.56c-2.78-1.73-5.44-3.44-8-5.12A93.49,93.49,0,0,0,0,437v.32A94.36,94.36,0,0,1,15.15,445.12Z"/><path class="cls-1" d="M9.34,208.18c-.49-3.22-2.71-6.1-6.8-8.81L0,197.68V198l2.38,1.58c4,2.66,6.19,5.47,6.67,8.61.79,5.18-3.15,10.53-8,16.48-.32.41-.68.9-1.06,1.43v.52c.47-.67.9-1.27,1.3-1.76C6.18,218.89,10.16,213.49,9.34,208.18Z"/><path class="cls-1" d="M7.51,448.33h0A69.56,69.56,0,0,0,0,444.4v.33a71.42,71.42,0,0,1,7.36,3.85L9.69,450h.58Z"/><path class="cls-1" d="M68.19,1c1.87,1,4.44,2.25,6.71,2.25a4.25,4.25,0,0,0,2.45-.69l.17-.13A4.78,4.78,0,0,0,79,0h-.52a4.21,4.21,0,0,1-1.3,2l-.14.1a3.72,3.72,0,0,1-2.17.61c-2.15,0-4.65-1.27-6.49-2.19-.27-.14-.53-.28-.77-.39L67.32,0H66.18l1.24.61Z"/><path class="cls-1" d="M72.89,441a3.92,3.92,0,0,0-.35-3.34c-1.47-2.27-5.43-2.85-8.32-3.27l-1.32-.2-.65-.13a40.66,40.66,0,0,0-7-.93,3.88,3.88,0,0,0-2.76.69,1.14,1.14,0,0,0-.31.85c.14,2.59,4.1,4.18,6.47,5.13.37.15.71.28,1,.41.64.27,1.36.63,2.13,1,2.44,1.22,5.21,2.6,7.58,2.6a6.27,6.27,0,0,0,.88-.07A3.38,3.38,0,0,0,72.89,441Zm-2.78,2.18a4.93,4.93,0,0,1-.78.06c-2.24,0-4.94-1.35-7.33-2.53-.77-.39-1.5-.75-2.15-1-.28-.13-.62-.26-1-.41-2.24-.9-6-2.41-6.11-4.63a.52.52,0,0,1,.15-.42c.22-.24.81-.52,2.34-.52a39.66,39.66,0,0,1,6.9.93l.66.13,1.34.2c2.62.39,6.59,1,7.92,3a3.37,3.37,0,0,1,.28,2.87A2.82,2.82,0,0,1,70.11,443.18Z"/><path class="cls-1" d="M92.38,427.63c.47-2.94,1-6-1-8.29-2.32-2.76-6.1-2.95-9.44-3.12l-.35,0c-1.18-.06-2.53-.13-3.82-.26a111.28,111.28,0,0,1-38.66-10.46c-3.81-1.82-7.55-3.89-11.17-5.9-2-1.1-4-2.24-6.09-3.33l-.14-.07c-2.4-1.27-4.88-2.59-7.44-2.59a6.54,6.54,0,0,0-3.71,1.12c-4.07,2.64-6,7.79-7.91,12.76A57.43,57.43,0,0,1,0,413.73v.62a51.1,51.1,0,0,0,3-6.78c1.87-4.92,3.8-10,7.79-12.61a6.34,6.34,0,0,1,3.55-1.07c2.48,0,4.93,1.3,7.3,2.55l.14.08c2,1.08,4.09,2.22,6.08,3.32,3.63,2,7.37,4.09,11.19,5.91a111.63,111.63,0,0,0,38.76,10.49c1.3.13,2.65.2,3.84.26l.34,0c3.28.16,7,.36,9.23,3,1.85,2.21,1.37,5.18.9,8.05-.15.93-.29,1.8-.36,2.66a51.09,51.09,0,0,0-.17,9.94A79.35,79.35,0,0,0,93.49,450h.31a80,80,0,0,1-2-9.86,51.31,51.31,0,0,1,.17-9.88C92.09,429.42,92.23,428.55,92.38,427.63Z"/><path class="cls-1" d="M18.19,211.57c2.6-7.31,0-10.24-11.79-18l-2.83-1.89C2.34,190.81,1.16,190,0,189.21v.37l3.41,2.32,2.83,1.88c11.61,7.7,14.2,10.58,11.67,17.69-2.29,6.43-6.72,11.89-11.41,17.66-2.19,2.69-4.41,5.43-6.5,8.36V238c2.15-3.06,4.46-5.91,6.73-8.69C11.44,223.52,15.88,218.05,18.19,211.57Z"/><path class="cls-1" d="M79.09,423.7c-3.16-1.38-6.61-1.71-10-2a55.64,55.64,0,0,1-5.74-.75,117.74,117.74,0,0,1-27.27-9.12c-4-1.91-7.84-4-11.56-6.1-.52-.29-1.14-.68-1.78-1.09-2.15-1.37-4.82-3.07-7.2-3.07a4.08,4.08,0,0,0-2.38.72c-1.82,1.27-2.68,3.84-3.44,6.11-.19.56-.37,1.1-.55,1.58a30.74,30.74,0,0,1-1.66,3.28c-1.66,3-3.73,6.77-3,9s3.73,3.53,6.11,4.53c.54.23,1.05.44,1.49.65A83.79,83.79,0,0,1,23,433.51a304.27,304.27,0,0,0,28,16.49h.64a307.57,307.57,0,0,1-28.43-16.74,83.23,83.23,0,0,0-10.84-6.09c-.44-.21-1-.43-1.5-.66-2.33-1-5.23-2.19-5.94-4.34s1.33-5.83,3-8.8a30.52,30.52,0,0,0,1.68-3.31c.19-.49.37-1,.56-1.6.74-2.22,1.58-4.74,3.32-6a3.82,3.82,0,0,1,2.21-.67c2.3,0,4.92,1.68,7,3,.66.42,1.27.81,1.82,1.11C28.15,408,32,410.15,36,412.07a118.36,118.36,0,0,0,27.34,9.15,56.94,56.94,0,0,0,5.77.75c3.32.32,6.74.65,9.86,2,5.5,2.41,5.48,7.11,5.45,12.08a41.21,41.21,0,0,0,.18,5,81.8,81.8,0,0,0,1.68,9h.31a80,80,0,0,1-1.69-9,40.72,40.72,0,0,1-.18-4.94C84.75,431,84.77,426.18,79.09,423.7Z"/><path class="cls-1" d="M65.68,449.2A334.94,334.94,0,0,1,27.1,427.38a40.82,40.82,0,0,0-4.3-2.44A30.4,30.4,0,0,1,17,421.37c-2.37-2-3-4-2-6.42a4.08,4.08,0,0,1,4.06-2.82c3.23,0,7.55,2.62,10.69,4.54,1.25.75,2.32,1.4,3.16,1.8a124.22,124.22,0,0,0,29,9.7,61.15,61.15,0,0,0,6.51.87l1.12.09c2.51.2,5.35.43,7,2.29s1.86,5.66,2,8.71c0,.84.07,1.64.13,2.33l0,.38c.19,2,.46,5-.26,7.16H79c.69-2.26.42-5.2.24-7.21l0-.37c-.06-.69-.09-1.48-.13-2.31-.13-3.13-.3-7-2.12-9s-4.78-2.25-7.38-2.46l-1.12-.09a59.68,59.68,0,0,1-6.45-.86A124.36,124.36,0,0,1,33.15,418c-.81-.39-1.88-1-3.11-1.78-3.19-1.95-7.58-4.61-10.95-4.61a4.59,4.59,0,0,0-4.52,3.13c-1.09,2.63-.41,4.85,2.12,7a31,31,0,0,0,5.88,3.63,41.42,41.42,0,0,1,4.25,2.41,333,333,0,0,0,38.64,21.85l.72.36h1.14Z"/><path class="cls-1" d="M97.07,249.26H97c-1.42,0-2.86,1.81-3.91,3.12-.23.29-.43.54-.61.74-1,1.14-1.94,2.33-2.87,3.48-.59.75-1.19,1.49-1.8,2.23l-.08.08c-2,2.37-2.81,3.91-2.49,4.72a.94.94,0,0,0,.85.56h.29c4-.08,7.24-3.71,8.82-5.86a16.93,16.93,0,0,0,3-6.08,3.75,3.75,0,0,0-.24-2.58A1.13,1.13,0,0,0,97.07,249.26Zm.59,2.9A16.22,16.22,0,0,1,94.79,258c-1.52,2.08-4.63,5.58-8.42,5.66l0,.25v-.25h-.18c-.36,0-.42-.19-.44-.24-.11-.28-.1-1.24,2.41-4.21l.07-.09c.62-.74,1.21-1.49,1.81-2.24.92-1.14,1.87-2.33,2.86-3.46.18-.2.39-.46.62-.75.93-1.17,2.34-2.94,3.57-2.94h0a.56.56,0,0,1,.46.23A3.12,3.12,0,0,1,97.66,252.16Z"/><path class="cls-1" d="M202.57,350.57c13.27-1.51,27.5-16.88,27.68-29.9.28-20-11.19-35.91-22.29-51.33-1.89-2.61-3.84-5.32-5.68-8l-1.1-1.6c-5.23-7.52-11.15-16-13.07-25.26-1.63-7.81-4.12-26-1.41-32.26,2-4.59,7.65-7.22,13.12-9.77,3.78-1.75,7.36-3.41,9.87-5.69l.11-.1c8.58-7.78,8.58-7.78,14.43-8,1.77-.06,4-.13,7.08-.43a52.2,52.2,0,0,0,8.43-1.44,12.12,12.12,0,0,1,2.71-.48c1.8,0,3.31,1.27,8.3,5.5,14.75,12.49,14.47,34.21,14.2,55.22-.34,26.43-.69,53.77,29.23,62.42a45.11,45.11,0,0,0,12.45,1.87c11.25,0,20.82-5,27.69-14.53,10.08-13.94,12.76-35.71,6.67-54.16-14.07-42.58-47.69-66.93-83.86-90.13-32.86-21.09-64.17-26.9-90.93-30.69a40,40,0,0,0-5.48-.41c-10.85,0-16,5.52-22.54,12.5a113.75,113.75,0,0,1-8.3,8.27c-3.68,3.23-8.36,5.45-12.88,7.59-7.38,3.49-14.35,6.78-17.23,14.11-6.11,15.55,8.9,27.66,22.15,38.35,6.13,5,11.92,9.63,15.31,14.3,13.46,18.52,9.43,49.75-2.77,67.3-3.81,5.47-11.11,12.25-18.83,19.42-12.8,11.88-27.31,25.35-29.87,36.66-1.21,5.33-.89,9,1,11.36,1.55,1.94,4.16,2.88,8,2.88,6.29,0,15.3-2.59,24.83-5.34,11.65-3.35,24.86-7.15,36.12-7.15a32.32,32.32,0,0,1,13.59,2.56,58.54,58.54,0,0,1,11.57,7.59c5.87,4.56,11.41,8.87,19.25,8.87A24.09,24.09,0,0,0,202.57,350.57Zm-33.13-16.78a32.84,32.84,0,0,0-13.8-2.6c-11.34,0-24.58,3.81-36.26,7.17-9.5,2.74-18.47,5.32-24.69,5.32-3.65,0-6.13-.88-7.58-2.69-1.75-2.2-2-5.77-.87-10.93,2.53-11.17,17-24.58,29.73-36.41,7.74-7.19,15.06-14,18.9-19.51,12.3-17.68,16.35-49.18,2.77-67.88-3.43-4.72-9.25-9.42-15.41-14.39-13.11-10.58-28-22.57-22-37.78,2.81-7.14,9.69-10.4,17-13.84,4.56-2.16,9.27-4.38,13-7.66a116.62,116.62,0,0,0,8.33-8.3c6.45-6.9,11.55-12.35,22.18-12.35a37.48,37.48,0,0,1,5.41.41c26.71,3.78,58,9.58,90.74,30.61,36.08,23.15,69.63,47.44,83.64,89.87,6.05,18.3,3.4,39.89-6.59,53.71-6.77,9.37-16.21,14.32-27.29,14.32A44.54,44.54,0,0,1,294.32,299c-13.26-3.84-21.64-11.71-25.64-24.07-3.57-11.08-3.4-24.7-3.23-37.87.27-21.12.55-43-14.38-55.6-7.14-6.05-7.33-6.14-11.45-5.12a51.49,51.49,0,0,1-8.35,1.43c-3.1.29-5.29.36-7.05.42-6,.21-6,.21-14.75,8.11l-.12.1c-2.45,2.22-6,3.87-9.74,5.61-5.56,2.58-11.31,5.26-13.37,10-2.76,6.39-.26,24.69,1.38,32.55,1.94,9.31,7.89,17.88,13.15,25.45l1.1,1.59c1.84,2.67,3.79,5.38,5.68,8,11,15.35,22.48,31.23,22.2,51-.18,12.81-14.18,27.92-27.24,29.41a23,23,0,0,1-2.46.14c-7.67,0-13.15-4.25-18.94-8.76C177.53,338.67,173.83,335.79,169.44,333.79Z"/><path class="cls-1" d="M450,2.14c-1.5-.77-3-1.49-4.59-2.14h-.82c1.85.75,3.65,1.57,5.41,2.48Z"/><path class="cls-1" d="M436.39,196.58c-.5-.37-1.29-1.05-2.28-1.92-3.81-3.31-10.18-8.87-14.66-8.87a4.12,4.12,0,0,0-3.9,2.53c-1.05,2.11,1.25,7,2.77,10.21.37.79.69,1.47.89,2,.41,1,.78,1.94,1.1,2.76a168.41,168.41,0,0,1,5.95,17.54c.17.65.33,1.38.51,2.16.74,3.33,1.67,7.47,4,9.5a7.06,7.06,0,0,0,2.59,1.55,3.94,3.94,0,0,0,1.11.17c2.72,0,4.59-3.09,6.4-6.08.41-.68.84-1.38,1.26-2l.41-.62c6.89-10.49,11.05-16.82-1.62-25.62C439.66,199,438.06,197.8,436.39,196.58Zm5.7,28.59-.4.61c-.43.66-.86,1.37-1.28,2.05-1.73,2.87-3.53,5.84-6,5.84a3.37,3.37,0,0,1-1-.15,6.6,6.6,0,0,1-2.4-1.45c-2.18-1.92-3.09-6-3.82-9.22-.17-.79-.34-1.53-.51-2.19a165.5,165.5,0,0,0-6-17.59c-.32-.82-.7-1.76-1.11-2.76-.21-.51-.53-1.2-.9-2-1.39-2.95-3.71-7.89-2.77-9.78a3.61,3.61,0,0,1,3.45-2.25c4.3,0,10.58,5.48,14.33,8.75,1,.87,1.79,1.56,2.32,2,1.67,1.22,3.27,2.38,4.51,3.24C452.87,208.75,448.81,214.93,442.09,225.17Z"/><path class="cls-1" d="M444.59,185.36c-2.21-1.61-4.41-3.41-6.74-5.32-7.13-5.82-15.21-12.41-22.47-12.41a11.51,11.51,0,0,0-4.15.77c-12.82,4.84-11,18.4-8.75,26,1.37,4.67,3.14,9.3,4.85,13.77a155.35,155.35,0,0,1,5.48,16.09,80,80,0,0,1,1.72,10.17c1.29,10.35,2.51,20.12,16.31,20.12,1.09,0,2.27-.06,3.5-.18a19,19,0,0,0,4-.76c3.67-1.18,4.77-3.4,6.43-6.77.5-1,1.07-2.18,1.78-3.42A64.26,64.26,0,0,1,450,238v-.52a69.1,69.1,0,0,0-3.75,5.83c-.71,1.25-1.28,2.41-1.79,3.43-1.63,3.3-2.7,5.48-6.25,6.63a19.08,19.08,0,0,1-3.9.74c-1.22.12-2.39.18-3.47.18-13.54,0-14.68-9.2-16-19.86a79.16,79.16,0,0,0-1.73-10.21,158.34,158.34,0,0,0-5.49-16.12c-1.71-4.47-3.48-9.08-4.84-13.74-2.21-7.56-4-20.93,8.56-25.69a11.17,11.17,0,0,1,4.05-.75c7.16,0,15.19,6.56,22.28,12.35,2.33,1.9,4.54,3.7,6.75,5.32,1.67,1.22,3.14,2.29,4.24,3.05l1.35.93v-.37l-1.18-.81C447.72,187.64,446.25,186.57,444.59,185.36Z"/><path class="cls-1" d="M436.69,408.75a208.06,208.06,0,0,1-13.64,18.38c-.22.28-.46.56-.71.85-1.8,2.11-4,4.74-2.46,7.38s5.9,3.07,9.1,3.44l1.57.21A73.87,73.87,0,0,1,450,444.73v-.33a74.41,74.41,0,0,0-19.41-5.69c-.46-.07-1-.13-1.58-.2-3.13-.37-7.42-.88-8.87-3.3s.69-5,2.43-7l.72-.86a210.81,210.81,0,0,0,13.65-18.41c3.91-6.08,6.67-12.38,9.6-19.05a31.89,31.89,0,0,1,3.46-6v-.5a31.85,31.85,0,0,0-3.74,6.42C443.34,396.4,440.58,402.69,436.69,408.75Z"/><path class="cls-1" d="M329.7,5.27c1.56,5.28,12.73,8.2,19.85,8.2,10.16,0,20.81-2,32.09-4.13S404.8,5,416.26,5c12.55,0,23.1,2.69,32.24,8.22l1.5.91v-.58c-.41-.26-.84-.52-1.25-.76-9.21-5.58-19.84-8.29-32.49-8.29-11.5,0-23.3,2.22-34.71,4.36S359.66,13,349.55,13c-7.12,0-17.94-3-19.37-7.84q-.72-2.44,1.73-5.13h-.66C329.72,1.81,329.19,3.57,329.7,5.27Z"/><path class="cls-1" d="M414.05,39.93l-3.85,0-3.57,0c-6.82,0-12.24.37-18.23,2.19A55.21,55.21,0,0,0,379.51,46c-4.74,2.41-9.21,4.69-14.56,4.69a18.34,18.34,0,0,1-2.67-.19c-3.95-.57-6.91-2.9-9.77-5.15-3.21-2.53-6.24-4.92-10.5-4.92a11.81,11.81,0,0,0-1.18.06c-2.62.27-6.83,2.63-10.89,4.92a56.78,56.78,0,0,1-6.84,3.5,47.3,47.3,0,0,1-5.85,1.73c-4.21,1-4.74,1.37-6.78,9.11-.56,2.14-1,4.14-1.37,6.07C307.63,73,306.47,78.63,298.82,84c-5.17,3.65-11.72,5.42-20,5.42s-16.85-1.72-24.45-3.25c-4-.79-7.73-1.54-10.51-1.84-1.62-.17-4.12-.28-6.68-.28-7.34,0-15.94,2.69-16.54,6.55-.29,1.82,1.14,4.57,9.56,7.26l.93.3c32.07,10.28,54.44,23.71,77.21,46.33,6.27,6.24,11.07,9.15,15.09,9.15a7.77,7.77,0,0,0,2.74-.5c4.27-1.59,7.38-7,11-13.22,1.86-3.22,4-6.87,6.47-10.39a91.07,91.07,0,0,1,48.8-35A60.47,60.47,0,0,1,409,92.08c17.27,0,29.46,8.46,41,17.16v-.63c-11.52-8.67-23.71-17-41-17a61.1,61.1,0,0,0-16.74,2.49,91.59,91.59,0,0,0-49.07,35.22c-2.51,3.53-4.63,7.19-6.49,10.42-3.56,6.16-6.63,11.48-10.73,13a7.49,7.49,0,0,1-2.57.46c-3.88,0-8.56-2.86-14.74-9-22.83-22.68-45.25-36.14-77.4-46.45l-.94-.3c-6.3-2-9.58-4.4-9.22-6.7.5-3.21,8.15-6.13,16.05-6.13,2.54,0,5,.11,6.62.28,2.77.29,6.51,1,10.47,1.84C261.86,88.23,270.5,90,278.79,90s15.07-1.8,20.32-5.51c7.81-5.53,9-11.28,10.48-18.57.4-1.93.8-3.92,1.37-6,2-7.71,2.44-7.81,6.4-8.76a46.72,46.72,0,0,0,5.91-1.74,55.89,55.89,0,0,0,6.91-3.54c3.84-2.15,8.18-4.59,10.7-4.85a10.84,10.84,0,0,1,1.13-.06c4.08,0,7.05,2.34,10.2,4.81,2.91,2.29,5.92,4.66,10,5.25a19.68,19.68,0,0,0,2.75.2c5.47,0,10.2-2.41,14.78-4.74a54.62,54.62,0,0,1,8.82-3.85c5.92-1.8,11.31-2.17,18.08-2.17l3.56,0,3.86,0a60.39,60.39,0,0,1,16.71,2.18A126.84,126.84,0,0,1,450,50.08v-.56a127.62,127.62,0,0,0-19.1-7.39A60.7,60.7,0,0,0,414.05,39.93Z"/><path class="cls-1" d="M439.17,416.93c-3.24,3.89-6.91,8.3-6.74,12.52.14,3.25,3.28,3.8,6.06,4.28.67.12,1.3.23,1.9.37a68.27,68.27,0,0,1,9.61,3.26V437a67.19,67.19,0,0,0-9.54-3.23c-.61-.15-1.24-.26-1.92-.38-2.79-.48-5.68-1-5.81-4-.17-4.1,3.46-8.46,6.67-12.31a49.92,49.92,0,0,0,3.43-4.42A107,107,0,0,0,450,399.28v-.72a108.91,108.91,0,0,1-7.42,14A49.33,49.33,0,0,1,439.17,416.93Z"/><path class="cls-1" d="M444.83,194.15c-1.16-.8-2.73-1.94-4.37-3.14-2.35-1.72-4.62-3.57-7-5.55-.54-.44-1.14-.94-1.77-1.48-4-3.42-9.55-8.1-14.62-8.1a7.27,7.27,0,0,0-3.87,1.09c-8.77,5.42-3.5,18.38-.34,26.13.38.94.74,1.83,1,2.62a159.62,159.62,0,0,1,5.72,16.82c.29,1.1.58,2.4.88,3.77,1.4,6.28,3.32,14.89,8.13,18a6.17,6.17,0,0,0,2.48.95,6.66,6.66,0,0,0,.78.05c5.88,0,11.74-8.93,16-15.46.78-1.18,1.48-2.25,2.13-3.18v-.52c-.71,1-1.5,2.2-2.38,3.54-4.24,6.47-10.05,15.32-15.77,15.32a6,6,0,0,1-.74-.05,5.77,5.77,0,0,1-2.36-.9c-4.7-3-6.6-11.57-8-17.81-.31-1.37-.6-2.67-.89-3.78a157.93,157.93,0,0,0-5.73-16.85c-.3-.79-.66-1.68-1.05-2.62-3.11-7.66-8.33-20.47.23-25.77a7,7,0,0,1,3.71-1c5,0,10.43,4.64,14.43,8,.63.54,1.22,1,1.78,1.5,2.41,2,4.68,3.82,7,5.54,1.64,1.2,3.21,2.34,4.38,3.15,1.56,1.08,3.13,2.15,4.82,3.29l.52.35v-.36l-.37-.25C448,196.3,446.39,195.23,444.83,194.15Z"/><path class="cls-1" d="M392.85,265.12c.56.74,1.63,1.76,4.3,2,10,.82,25.1,2.06,37.85,13.68l.15.13a44.05,44.05,0,0,1,10.52,15c.73,1.64,1.91,2.59,3.23,2.59a2.86,2.86,0,0,0,1.1-.23v-.36a2.47,2.47,0,0,1-1.1.29c-1.2,0-2.28-.88-2.95-2.41a44.42,44.42,0,0,0-10.6-15.08l-.15-.14c-12.83-11.68-28-12.92-38-13.75-2.55-.2-3.55-1.15-4.09-1.85a7.71,7.71,0,0,1-1.28-5c1.39-6.12,3.12-13.74,2.47-22.08-1.1-14.11-6.74-26.23-12.2-38-4.38-9.41-9.34-20.08-7.62-24.94,3.07-8.66,15.61-21.06,20.86-26a16.72,16.72,0,0,1,11.77-4.72,20.52,20.52,0,0,1,6.18,1c9.2,3,22.22,9.76,36.74,19.09V164c-14.47-9.29-27.46-16.06-36.65-19a20.67,20.67,0,0,0-6.27-1,17,17,0,0,0-12,4.81c-5.26,4.94-17.84,17.39-20.93,26.11-1.76,5,3.23,15.7,7.63,25.17,5.45,11.7,11.08,23.8,12.17,37.86.64,8.29-1.08,15.88-2.47,22A8.13,8.13,0,0,0,392.85,265.12Z"/><path class="cls-1" d="M449.11,415.29c-1.61,2.64-3.44,5.63-3,8.89a6.48,6.48,0,0,0,3.89,5.57v-.33a6.16,6.16,0,0,1-3.59-5.28c-.42-3.15,1.37-6.09,3-8.69l.3-.49c.11-.19.22-.41.33-.61v-.62c-.19.36-.38.73-.59,1.07Z"/><path class="cls-1" d="M318.79,15.51c8.63,5.42,18.69,8.06,30.76,8.06,11.1,0,22.72-2.19,33.95-4.3,10.94-2.06,22.25-4.18,32.76-4.18,10.66,0,19.49,2.21,27,6.76l4.13,2.5L450,25.94v-.82l-2.25-1.37-4.12-2.5c-7.63-4.62-16.58-6.86-27.37-6.86-10.58,0-21.92,2.13-32.89,4.19-11.2,2.11-22.79,4.29-33.82,4.29-11.93,0-21.87-2.6-30.38-8-5.72-3.59-8.48-7.37-8.21-11.22A8.89,8.89,0,0,1,312.14,0h-.78a9.41,9.41,0,0,0-1.1,3.65C310,7.78,312.84,11.77,318.79,15.51Z"/><path class="cls-1" d="M411.67,256.06c2.28,1.25,5.4,1.78,8.43,2.29a39.19,39.19,0,0,1,6.43,1.46,40.44,40.44,0,0,1,3.9,1.76c2.86,1.41,6.11,3,9.08,3a7.76,7.76,0,0,0,1.63-.17l.41-.11c4.24-1.26,6.5-6.58,8.45-11.46V252l0,.08c-2,5-4.22,10.63-8.5,11.9l-.38.1a6.75,6.75,0,0,1-1.57.17c-2.89,0-6.11-1.58-8.95-3a41.48,41.48,0,0,0-3.93-1.78,39,39,0,0,0-6.48-1.46c-3-.51-6.1-1-8.33-2.26-4.94-2.71-4.43-7.67-3.88-12.92a35.38,35.38,0,0,0,.28-6.12c-1.29-16.64-7.47-29.93-13.45-42.78a22.33,22.33,0,0,1-.56-18,25.31,25.31,0,0,1,14.65-13.85,18.31,18.31,0,0,1,6.52-1.2c9.65,0,18.71,7.4,26.7,13.92,2.27,1.85,4.41,3.6,6.46,5.09L450,181v-.37l-1.29-.94c-2-1.49-4.17-3.23-6.44-5.08-8-6.56-17.13-14-26.89-14a18.7,18.7,0,0,0-6.63,1.22,25.6,25.6,0,0,0-14.82,14,22.62,22.62,0,0,0,.57,18.24c6,12.82,12.14,26.09,13.42,42.67a34.86,34.86,0,0,1-.28,6.07C407.11,248,406.56,253.25,411.67,256.06Z"/><path class="cls-1" d="M414.05,50c-8.41,0-17.36,1.53-26.84,3.15-10.67,1.82-21.71,3.7-33.46,3.7-.85,0-1.69,0-2.5,0a61.4,61.4,0,0,1-10.59-1.36,37.68,37.68,0,0,0-7.11-1c-5.19,0-9,2.74-13.18,9.44a63.57,63.57,0,0,0-4.9,10.84c-2.51,6.61-5.1,13.44-10.84,17.49-2,1.4-5.75,2.48-9.75,3.62-7,2-14.92,4.26-16,9-1.34,5.91,10.81,14,17.34,18.36,1.22.81,2.27,1.51,3,2,7.65,5.62,14,9.36,20,9.36a14,14,0,0,0,2.43-.21c4.81-.87,9.17-4.26,13.73-10.69a101.36,101.36,0,0,1,54.25-38.89A70.6,70.6,0,0,1,409,82c17.25,0,30,7,41,14.73v-.37c-11-7.74-23.75-14.66-41-14.66a70.82,70.82,0,0,0-19.47,2.88,101.59,101.59,0,0,0-54.42,39c-4.51,6.36-8.81,9.71-13.53,10.56a13.5,13.5,0,0,1-2.38.21c-5.94,0-12.23-3.72-19.84-9.3-.69-.51-1.74-1.21-3-2-6.47-4.31-18.52-12.33-17.22-18.05,1-4.55,8.87-6.78,15.78-8.75,4-1.15,7.83-2.24,9.84-3.66,5.81-4.1,8.42-11,10.95-17.64a64.07,64.07,0,0,1,4.87-10.78c4.11-6.6,7.86-9.3,12.93-9.3a38,38,0,0,1,7.05,1,61,61,0,0,0,10.65,1.37c.81,0,1.65,0,2.5,0,11.78,0,22.83-1.88,33.52-3.71,9.46-1.61,18.39-3.14,26.78-3.14a50.45,50.45,0,0,1,14,1.8,129.29,129.29,0,0,1,22,9v-.34a127.84,127.84,0,0,0-21.88-8.9A50.59,50.59,0,0,0,414.05,50Z"/><path class="cls-1" d="M405.2,261.45c2,.51,4,1,6,1.42,10.46,2.43,19.49,4.52,28.52,12.69l.18.17c2.07,1.88,3.71,2.79,5,2.79a2.2,2.2,0,0,0,.58-.07c2-.45,2.94-3.19,4-6.72.16-.54.34-1.09.52-1.63v-1c-.28.84-.55,1.69-.81,2.54-1.05,3.43-2,6.09-3.79,6.51-1.3.31-3-.56-5.33-2.66l-.18-.16c-9.09-8.23-18.15-10.33-28.65-12.76-1.93-.45-3.93-.91-6-1.42-7.34-1.84-6.1-8.74-4.9-15.41a35.12,35.12,0,0,0,.87-8.45c-1.19-15.37-7.1-28.08-12.82-40.37-.68-1.47-1.41-2.91-2.12-4.3-3.68-7.2-6.85-13.43-2.31-21.09,3.41-5.76,8.52-10.48,13.47-15,.89-.82,1.78-1.64,2.65-2.46a10.89,10.89,0,0,1,7.72-2.7c12.32,0,31.27,13.11,42.17,21V172C439,164.05,420.17,151,407.83,151a11.21,11.21,0,0,0-7.93,2.78c-.87.82-1.76,1.64-2.65,2.46-5,4.58-10.09,9.31-13.52,15.11-4.62,7.8-1.26,14.4,2.3,21.38.71,1.39,1.44,2.82,2.12,4.29,5.71,12.26,11.61,24.95,12.8,40.27a35.67,35.67,0,0,1-.87,8.37C398.86,252.5,397.59,259.54,405.2,261.45Z"/><path class="cls-1" d="M194.75,405.46c-2.53,3.81-5.67,8.56-4.59,11.84a5,5,0,0,0,3.32,3,3.18,3.18,0,0,0,1.08.18c3.87,0,10-6,15.38-11.23,3.44-3.35,6.68-6.51,8.63-7.4,9.33-4.23,22.18-6.24,33.52-8,4.48-.7,8.7-1.37,12.61-2.13a133.87,133.87,0,0,1,25.54-2.63c26.33,0,48.45,9.48,65.73,28.17,1.93,2.1,4.75,3.16,8.37,3.16,11.28,0,30.63-11,44.26-31.33,8.15-12.17,20-37.06,7.68-66.95-4.94-12-12.27-17.56-23.07-17.56-8.23,0-17.61,3-28.47,6.52-13.36,4.31-28.51,9.19-44.8,9.19a74,74,0,0,1-35.63-8.95c-34.79-18.55-35.81-52.41-32.8-79.82,1.16-10.67-.73-19.11-5.49-24.41a17.22,17.22,0,0,0-13.23-5.73c-10,0-22.57,7.8-27.09,22.69-4.25,14,5.83,26.77,17.51,41.53,13.16,16.64,28.08,35.5,25.19,60.67-1.44,12.48-6,24.45-12.19,32-4.7,5.75-8.85,6.26-13.25,6.8-3.36.42-6.83.84-10.9,3.43-3.11,2-4.08,5.32-5.12,8.88a22.38,22.38,0,0,1-2.94,7.05c-.82,1.14-2.25,1.39-3.76,1.65-2,.35-4.24.74-5.44,3.31-.83,1.79.27,3.9,1.33,5.94.88,1.7,1.8,3.46,1.53,4.92C197.44,401.41,196.19,403.29,194.75,405.46Zm1.89-10.41c-1-2-2-3.89-1.32-5.43,1.07-2.29,3.08-2.64,5-3,1.56-.27,3.17-.55,4.13-1.88a23.24,23.24,0,0,0,3-7.23c1-3.45,1.94-6.7,4.87-8.56,4-2.51,7.36-2.93,10.66-3.34,4.51-.55,8.78-1.08,13.62-7,6.27-7.66,10.87-19.75,12.32-32.33,2.92-25.41-12.08-44.37-25.31-61.1-11.58-14.63-21.57-27.27-17.41-41,4.44-14.63,16.71-22.28,26.54-22.28a16.67,16.67,0,0,1,12.8,5.53c4.65,5.18,6.49,13.47,5.34,24-3,27.6-2,61.68,33.11,80.4a74.43,74.43,0,0,0,35.9,9c16.38,0,31.58-4.89,45-9.21,10.81-3.49,20.15-6.5,28.29-6.5,10.68,0,17.63,5.31,22.53,17.21,12.21,29.64.47,54.33-7.62,66.41-13,19.45-32.49,31.07-43.78,31.07-3.45,0-6.13-1-7.95-3C339,398,316.74,388.48,290.24,388.48a134.08,134.08,0,0,0-25.65,2.63c-3.89.77-8.12,1.43-12.59,2.13-11.38,1.78-24.27,3.8-33.67,8.06-2,.92-5.17,4-8.79,7.51-5.32,5.19-11.35,11.06-15,11.06a2.56,2.56,0,0,1-.89-.14,4.35,4.35,0,0,1-3-2.61c-1-3,2.06-7.63,4.52-11.34,1.48-2.23,2.75-4.15,3-5.44C198.53,398.69,197.57,396.84,196.64,395.05Z"/><path class="cls-1" d="M132.67,407.11c4.51-4.08,11.65-7.65,19.91-11.79,5.78-2.9,13.53-10,13.07-15.8-.25-3.18-2.81-5.55-7.59-7.06a20.78,20.78,0,0,0-6.29-.88c-6.12,0-13,2-19.1,3.83-2.78.82-5.4,1.59-7.8,2.13-20.12,4.57-32.27,7.33-43.15,7.33-9.64,0-18.09-2.16-29.17-7.45A241.17,241.17,0,0,1,28,363.69c-9.14-5.65-13.4-8.16-18.81-8.16A30.9,30.9,0,0,0,0,357.25v.52A30.85,30.85,0,0,1,9.14,356c5.27,0,9.49,2.48,18.55,8.09a242.87,242.87,0,0,0,24.64,13.75c11.15,5.33,19.67,7.5,29.39,7.5,10.94,0,23.1-2.76,43.26-7.34,2.41-.55,5-1.32,7.83-2.14,6.05-1.79,12.91-3.81,19-3.81a20.11,20.11,0,0,1,6.14.86c4.57,1.44,7,3.67,7.24,6.62.44,5.59-7.14,12.48-12.79,15.31-8.3,4.16-15.47,7.75-20,11.87C118.58,419.18,120.79,435.42,125,450h.52C121.33,435.52,119.08,419.39,132.67,407.11Z"/><path class="cls-1" d="M436.44,337.21a11.44,11.44,0,0,0,5.88,1.27,27,27,0,0,0,7.68-1.22v-.74a26.09,26.09,0,0,1-7.68,1.26,10.88,10.88,0,0,1-5.5-1.16c-5.87-3.75-8.47-10.38-11.22-17.39-2.37-6.05-4.82-12.31-9.59-16.72v-.21h-.21c-5.47-4.83-12.85-7.18-22.55-7.18-9.46,0-19.41,2.27-27.4,4.1-5.47,1.24-10.18,2.32-13.22,2.32-1.78,0-2.87-.37-3.32-1.12-.59-1-.14-2.89,1.34-5.6,6.91-12.61,20.86-42.69,19.9-55.14-.76-9.82-5.48-20-10.05-29.78C353.88,195.71,347.05,181,352,167c5.68-16,30.69-44.63,48.49-47.06a25,25,0,0,1,3.33-.21c11.57,0,28.51,6.9,46.16,16.89v-.75c-17.66-10-34.58-16.84-46.16-16.84a24.83,24.83,0,0,0-3.43.22c-18,2.46-43.32,31.35-49.05,47.51-5.07,14.3,1.83,29.12,8.5,43.46,4.54,9.75,9.23,19.84,10,29.53.86,11.1-11.31,39.24-19.81,54.76-1.66,3-2.08,5-1.33,6.29.59,1,1.87,1.46,3.92,1.46,3.12,0,7.87-1.08,13.37-2.34,8-1.82,17.87-4.08,27.25-4.08,9.58,0,16.84,2.32,22.19,7.1h0c4.72,4.31,7.16,10.53,9.52,16.56C427.74,326.61,430.38,333.34,436.44,337.21Z"/><path class="cls-1" d="M430.61,382.87c-2.65,6-5.14,11.71-8.31,16.63-18.43,28.67-39,33.5-60.73,38.61-1.66.39-3.4.76-5.08,1.12-7.25,1.54-14.74,3.14-20.85,7.1a20.13,20.13,0,0,0-4.39,3.67h.66a20.62,20.62,0,0,1,4-3.25c6-3.91,13.48-5.5,20.68-7,1.69-.36,3.43-.73,5.09-1.12,21.86-5.14,42.5-10,61-38.83,3.19-4.95,5.69-10.66,8.35-16.72,4.21-9.59,9-20.47,15.58-24.11,1.18-.44,2.29-.83,3.35-1.17v-.52c-1.13.36-2.31.77-3.55,1.24C439.67,362.22,434.86,373.18,430.61,382.87Z"/><path class="cls-1" d="M326.65,439.15c11.79-5.26,22.45-7.76,32.76-10.19,20.72-4.87,38.61-9.07,55-34.54,2.76-4.29,5.11-9.65,7.6-15.33,5.2-11.86,10.58-24.12,20.57-29.18a69.61,69.61,0,0,1,7.43-2.45v-.72a68.88,68.88,0,0,0-7.75,2.55c-10.21,5.17-15.64,17.55-20.89,29.52-2.48,5.65-4.82,11-7.55,15.23-16.23,25.23-34,29.41-54.56,34.24-10.34,2.43-21,5-32.89,10.23-7.71,3.44-12.86,7.42-15,11.49h.78C314.29,446.19,319.27,442.44,326.65,439.15Z"/><path class="cls-1" d="M329,415.23c-1.86-5.86-10-10.24-24.12-13a147.93,147.93,0,0,0-28.3-2.75,153.85,153.85,0,0,0-41.85,5.91c-1.88.53-3.77,1.11-5.61,1.72-23.93,7.95-37.74,21.18-43.94,42.9h.74c6.17-21.36,19.82-34.4,43.42-42.23,1.83-.61,3.71-1.19,5.58-1.71a152.91,152.91,0,0,1,41.66-5.89,146.58,146.58,0,0,1,28.17,2.74c13.87,2.72,21.81,6.93,23.58,12.53,1.36,4.29-.89,9.52-6.68,15.56-6,6.24-12,12.55-17.48,19h.92c5.33-6.28,11.23-12.43,17.07-18.51C328.09,425.25,330.4,419.78,329,415.23Z"/><path class="cls-1" d="M273.48,359.6a2.64,2.64,0,0,0,1.31.34c1.78,0,3.52-1.73,5.06-3.26a11.49,11.49,0,0,1,2.43-2.06,5.9,5.9,0,0,1,2.57-.64,9.28,9.28,0,0,1,4.5,1.64c.56.31,1.14.64,1.76.94a9.85,9.85,0,0,0,4.46,1.1A18.61,18.61,0,0,0,300,357a21.77,21.77,0,0,1,5-.82h.24c3.8,0,7.28,2,10.64,3.87s6.82,3.85,10.58,3.85a11.57,11.57,0,0,0,5.31-1.33,18.75,18.75,0,0,0,3.44-2.39c1.55-1.28,2.89-2.38,5.15-2.38a9.22,9.22,0,0,1,2.16.28c6.42,1.51,9.24,7.42,12,13.13a45,45,0,0,0,4.27,7.65c3.35,4.43,7.67,6.87,12.17,6.87h.23c4.51-.08,8.85-2.56,12.2-7,4.55-6,12.81-25.6,9.39-35.35a8,8,0,0,0-5.78-5.42,11.59,11.59,0,0,0-2.83-.37c-2.92,0-5.11,1.31-7.64,2.82-.57.34-1.15.69-1.77,1-5.13,2.9-10.22,3.5-15.6,4.14-2.11.25-4.3.51-6.51.91a38,38,0,0,0-6.82,2.14c-2.82,1.1-5.48,2.13-8.41,2.13a13.18,13.18,0,0,1-5.91-1.46c-4.12-2-8.61-3.9-13.57-3.9A20.89,20.89,0,0,0,313,346l-2.24.56a34.14,34.14,0,0,1-8.33,1.42,15,15,0,0,1-6.41-1.42l-.88-.4c-3.78-1.75-7.69-3.56-11.68-3.56a12.6,12.6,0,0,0-6.24,1.64c-2.5,1.39-5.85,7.23-5.84,11.31A4.35,4.35,0,0,0,273.48,359.6Zm4-15a12.06,12.06,0,0,1,6-1.58c3.88,0,7.74,1.79,11.47,3.51l.88.41a15.64,15.64,0,0,0,6.62,1.46,34.86,34.86,0,0,0,8.45-1.43l2.24-.56a20.4,20.4,0,0,1,4.81-.58c4.85,0,9.28,1.85,13.35,3.85a13.72,13.72,0,0,0,6.13,1.51c3,0,5.73-1.05,8.59-2.16a37.53,37.53,0,0,1,6.73-2.12c2.2-.4,4.37-.66,6.48-.9,5.43-.65,10.57-1.25,15.78-4.2l1.79-1c2.47-1.48,4.6-2.75,7.38-2.75a11,11,0,0,1,2.7.36,7.46,7.46,0,0,1,5.44,5.09c3.37,9.59-4.82,28.94-9.32,34.89-3.26,4.3-7.45,6.71-11.81,6.79h-.22c-4.34,0-8.52-2.37-11.77-6.67a44.16,44.16,0,0,1-4.22-7.57c-2.78-5.81-5.66-11.83-12.32-13.4a10.16,10.16,0,0,0-2.27-.29c-2.44,0-3.84,1.16-5.47,2.49a17,17,0,0,1-3.35,2.33,11,11,0,0,1-5.08,1.28c-3.63,0-6.89-1.84-10.33-3.79s-7-3.93-10.89-3.93H305a22.37,22.37,0,0,0-5.13.83,17.87,17.87,0,0,1-4.29.7,9.19,9.19,0,0,1-4.24-1.05c-.61-.3-1.18-.62-1.74-.93a9.81,9.81,0,0,0-4.74-1.7,6.4,6.4,0,0,0-2.78.69,11.65,11.65,0,0,0-2.57,2.15c-1.47,1.46-3.14,3.12-4.71,3.12a2.17,2.17,0,0,1-1.07-.28,3.82,3.82,0,0,1-1.85-3.66C271.86,351.36,275.35,345.8,277.46,344.63Z"/><path class="cls-1" d="M209,395a14.58,14.58,0,0,0,3.24.26c3.05,0,14.34-.45,31.94-6.27a158.79,158.79,0,0,1,48.47-7.54c27.22,0,45.31,4.08,68.6,26.38a9.17,9.17,0,0,0,6.58,2.38c10.13,0,25.44-11,34.86-25.09,7.36-11,18.05-33.43,7-60.26-4.76-11.54-10.73-13.14-16.47-13.14-7.1,0-16,2.86-26.28,6.18-13.86,4.47-29.57,9.53-47,9.53a81,81,0,0,1-39-9.78c-39-20.8-39.53-59.56-36.54-86.9.93-8.47-.39-15.17-3.7-18.87a10.19,10.19,0,0,0-7.92-3.35c-7.41,0-16.75,6.06-20.26,17.62-3.17,10.46,5.84,21.84,16.27,35C242.13,278,258.72,299,255.49,327a72.86,72.86,0,0,1-6.39,22.75,87,87,0,0,1-20.7,28.26,105.48,105.48,0,0,1-15.29,11c-3.73,2.32-6,3.72-5.82,4.78C207.36,394.32,207.9,394.67,209,395Zm4.29-5.63a106.61,106.61,0,0,0,15.33-11,87.55,87.55,0,0,0,20.78-28.36,73.43,73.43,0,0,0,6.41-22.84C259,298.86,242.4,277.83,229,260.94c-10.38-13.12-19.34-24.45-16.22-34.75,3.47-11.43,12.67-17.41,20-17.41a9.92,9.92,0,0,1,7.7,3.25c3.25,3.64,4.54,10.25,3.62,18.64-3,27.42-2.47,66.31,36.7,87.2a81.3,81.3,0,0,0,39.13,9.82c17.47,0,33.2-5.08,47.1-9.56,10.26-3.3,19.11-6.16,26.17-6.16,5.64,0,11.5,1.57,16.19,13,11,26.7.34,49-7,60-9.22,13.76-24.74,24.95-34.61,24.95a8.85,8.85,0,0,1-6.37-2.3c-11.29-10.81-21.8-17.68-33.06-21.62-9.7-3.39-20.39-4.84-35.75-4.84a159.07,159.07,0,0,0-48.56,7.56c-17.57,5.8-28.82,6.25-31.85,6.25a14.62,14.62,0,0,1-3.17-.25c-.92-.24-1.41-.53-1.46-.87C207.46,392.93,209.89,391.41,213.27,389.32Z"/><path class="cls-1" d="M232.79,215.38c-5.36,0-11.25,5.43-13.18,10.29-1.28,3.23-.31,8.75,2.6,14.76,2.75,5.67,6.4,10,9.1,10.84a4.43,4.43,0,0,0,1.23.19,4.15,4.15,0,0,0,1.34-.23c3.48-1.22,3.4-3.35,3.23-8a76.39,76.39,0,0,1,.34-12.24c.8-7.27-.34-12.81-1.88-14.52A3.27,3.27,0,0,0,232.79,215.38ZM237,230.91a77.26,77.26,0,0,0-.34,12.31c.17,4.69.24,6.44-2.9,7.53a3.53,3.53,0,0,1-2.25,0c-2.58-.77-6.11-5-8.8-10.58-2.85-5.89-3.82-11.25-2.59-14.35,1.87-4.72,7.56-10,12.72-10a2.86,2.86,0,0,1,2.41.89C236.66,218.41,237.73,223.79,237,230.91Z"/><path class="cls-1" d="M353.84,360.3a20.08,20.08,0,0,1,2.54,1.25l1.07.59a59.32,59.32,0,0,1,10,6.5,5.84,5.84,0,0,0,3.42,1.71c1.38,0,2.18-1.16,2.82-2.25,2.42-4.13,3.27-7.31,4.26-12.88a2.82,2.82,0,0,0-.42-2.32c-.72-.86-2.15-1-4.26-.43-6.34,1.76-10.61,2.57-16,3.59l-2.95.56a2.22,2.22,0,0,0-1.91,1.79C352.34,358.79,352.41,359.72,353.84,360.3Zm.56-3.11c1-.2,2-.39,3-.56,5.42-1,9.71-1.84,16.07-3.6a7.79,7.79,0,0,1,2-.33,2,2,0,0,1,1.62.57,2.34,2.34,0,0,1,.3,1.85c-1,5.5-1.82,8.64-4.2,12.68-.69,1.19-1.36,2-2.32,2a5.36,5.36,0,0,1-3.05-1.58,59.68,59.68,0,0,0-10.09-6.57l-1.06-.58a19.67,19.67,0,0,0-2.6-1.29c-.76-.3-1.16-.77-1.11-1.3A1.68,1.68,0,0,1,354.4,357.19Z"/><path class="cls-1" d="M262,370.83a31.34,31.34,0,0,0,3.47-.23,304.59,304.59,0,0,1,30.69-1.7,151.3,151.3,0,0,1,16.07.75c23,2.47,42.89,13.44,52.41,23.2a8.44,8.44,0,0,0,6.22,2.71c5.33,0,11.89-4.63,18-12.72,10.72-14.16,14-41.26,8.65-51.94-1.41-2.83-3.38-4.33-5.7-4.33l-.59,0c-4.2.43-10,2.14-17.42,4.31-13.83,4-32.77,9.61-53.31,9.94-17.55.29-37.61-6.66-44.43-10a12.18,12.18,0,0,0-4.68-1.58c-2,0-2.12,1.94-2.27,5.14a37.62,37.62,0,0,1-1.51,10,127.45,127.45,0,0,1-6.69,16.74c-2.07,4.44-3.32,7.13-2.44,8.52C259,370.49,260.06,370.83,262,370.83Zm-.81-9.51a125.65,125.65,0,0,0,6.7-16.78,37.46,37.46,0,0,0,1.53-10.09c.15-3.13.22-4.86,2-4.86a12.09,12.09,0,0,1,4.54,1.54c6.72,3.28,26.19,10,43.54,10h1c20.58-.33,39.55-5.89,53.39-9.95,7.38-2.17,13.2-3.87,17.38-4.3,2.48-.25,4.49,1.14,6,4.13,5.27,10.61,2,37.55-8.62,51.63-6.06,8-12.54,12.6-17.77,12.6a8.16,8.16,0,0,1-6-2.61c-9.56-9.81-29.53-20.82-52.59-23.3a154.82,154.82,0,0,0-16.11-.75,305.37,305.37,0,0,0-30.73,1.7,30.56,30.56,0,0,1-3.43.23c-1.8,0-2.84-.31-3.26-1C257.94,368.31,259.16,365.68,261.19,361.32Z"/><path class="cls-1" d="M239.63,382.29a10.88,10.88,0,0,0,3.36-.67c14-4.86,30.24-7.22,49.64-7.22,24.17,0,48.12,2.22,75.34,29a4.16,4.16,0,0,0,3,1.16h0c7.61,0,21.67-14.58,25.84-23.37.38-.8.79-1.65,1.23-2.54,5.31-10.89,14.19-29.11,5.11-51.14-3.62-8.81-7-8.81-10-8.81-6,0-14.4,2.71-24.13,5.84-14.35,4.63-30.62,9.87-49.14,9.87-15.85,0-28.68-2.91-41.59-9.44-2-1-3.92-2.11-5.62-3.09-3.4-2-6.09-3.49-7.81-3.49-1.35,0-2,.94-2,2.88a14,14,0,0,0,.11,1.49c1.85,19-5.5,36.7-21.84,52.66-2.86,2.79-4.07,4.79-3.59,6C237.81,382,238.52,382.29,239.63,382.29Zm1.72-6.68c10.52-10.27,17.4-21.41,20.48-33.12a54.16,54.16,0,0,0,1.46-19.79,13.59,13.59,0,0,1-.11-1.46c0-2.31,1-2.58,1.74-2.58,1.64,0,4.43,1.6,7.66,3.45,1.7,1,3.63,2.08,5.64,3.1,12.95,6.55,25.82,9.48,41.72,9.48,18.57,0,34.86-5.26,49.24-9.89,9.7-3.13,18.07-5.83,24-5.83,2.89,0,6.17,0,9.72,8.62,9,21.91.17,40.06-5.11,50.9-.44.89-.85,1.74-1.23,2.54-4.14,8.73-18.06,23.2-25.57,23.2a3.89,3.89,0,0,1-2.84-1.07c-12.65-12.43-25.73-20.57-40-24.89-12.72-3.85-24.53-4.17-35.54-4.17-19.43,0-35.71,2.37-49.74,7.24a10.53,10.53,0,0,1-3.26.65c-.68,0-1.54-.13-1.8-.76S237.74,379.14,241.35,375.61Z"/><path class="cls-1" d="M185.88,0h-.74a100.6,100.6,0,0,0-3.25,17.78c-1.11,11.27-2.09,26,.22,40.28,1.68,10.38,5.06,15,11,15h0c3.76,0,8.13-1.82,13.19-3.93A97.41,97.41,0,0,1,217.31,65l1.12-.3c11.07-3,23.55-3.39,36.79-1.25A103.21,103.21,0,0,1,265.85,66c5.08,1.41,10.33,2.86,15.66,3.09,2.89.13,4.95-.16,6.4-.89,4.26-2.12,2.19-7.41,0-13-1.29-3.31-2.63-6.74-2.85-9.81-1.17-16.32,7.94-31.19,20-45.4h-.92c-11.95,14.18-20.95,29.06-19.77,45.45.22,3.18,1.58,6.65,2.9,10,2.16,5.53,4,10.3.34,12.13a12.74,12.74,0,0,1-6.06.82c-5.25-.23-10.46-1.67-15.5-3.06a101,101,0,0,0-10.71-2.55c-13.34-2.16-25.92-1.73-37.08,1.26l-1.13.31A99.31,99.31,0,0,0,206,68.48c-5,2.08-9.3,3.88-12.92,3.88-5.48,0-8.65-4.44-10.27-14.41-2.29-14.16-1.32-28.87-.21-40.1A99.19,99.19,0,0,1,185.88,0Z"/><path class="cls-1" d="M176.91,279.84a2.85,2.85,0,0,0-1.83-.9c-1.4,0-2.38,1.78-3.86,4.48a48.44,48.44,0,0,1-7.28,10.48L162.87,295c-4.17,4.42-6.08,6.44-5.61,7.52.21.5.86.72,2.09.72a41.43,41.43,0,0,0,5.16-.52,24.61,24.61,0,0,1,3.21-.22c8.67,0,15.9,4.86,21.18,8.41,3.09,2.08,5.53,3.73,7.28,3.73a2.16,2.16,0,0,0,1.78-.88C203.5,306.69,184.13,286.39,176.91,279.84Zm20.66,33.65a1.69,1.69,0,0,1-1.39.68c-1.6,0-4-1.61-7-3.64-5.33-3.59-12.64-8.5-21.46-8.5a24,24,0,0,0-3.28.23,40.07,40.07,0,0,1-5.09.51c-1,0-1.51-.14-1.63-.41-.34-.78,2-3.25,5.51-7l1.07-1.13a48.77,48.77,0,0,0,7.36-10.58c1.4-2.54,2.32-4.22,3.42-4.22a2.42,2.42,0,0,1,1.5.78C185.54,288.35,202.48,307.18,197.57,313.49Z"/><path class="cls-1" d="M177.05,288.18c-3.5,0-8,5.52-8,8.14a1.63,1.63,0,0,0,1.83,1.72c5.15.1,10.6,3.37,14.58,5.75,2.36,1.42,4.06,2.44,5.07,2.44h0a1,1,0,0,0,.77-.3,1.49,1.49,0,0,0,.28-1.16c-.37-4.81-9.5-14.44-13.2-16.29A2.86,2.86,0,0,0,177.05,288.18Zm13.8,16.64c0,.42,0,.58-.1.63s-.07.08-.25.08h0c-.81,0-2.62-1.09-4.71-2.34-4-2.43-9.59-5.75-14.93-5.84-.8,0-1.15-.33-1.14-1,0-2.34,4.21-7.45,7.33-7.45a2.11,2.11,0,0,1,1,.23C182,291.1,190.52,300.46,190.85,304.82Z"/><path class="cls-1" d="M164.68,197.48h0c.86,0,1.54-1.22,2.22-3.94,2.51-10.21,10.8-23.72,23.67-30.91,13-7.27,21.72-9.16,26.38-10.17,2.32-.5,3.48-.76,3.76-1.37a.91.91,0,0,0-.1-.83c-.9-1.64-17-10.67-40.26-12.55l-1-.08c-2.09-.17-3.9-.32-5.63-.32-6.05,0-10.94,1.7-22.34,11.33-1.8,1.52-3.64,2.93-5.42,4.29-5.51,4.23-10.27,7.88-10,12,.24,3.18,3.38,6.34,9.91,9.93,7.22,4,11.62,11.88,14.53,17.1C162.31,195.29,163.53,197.48,164.68,197.48Zm-18.61-22.86c-6.34-3.5-9.53-6.67-9.75-9.69-.3-4,4.4-7.59,9.84-11.76,1.79-1.37,3.63-2.78,5.44-4.31,11.32-9.56,16.16-11.25,22.14-11.25,1.72,0,3.52.15,5.61.32l1,.08c22.68,1.83,39.16,10.83,40,12.39.18.32.14.48.1.57-.22.47-1.47.74-3.55,1.2-4.68,1-13.4,2.91-26.46,10.2s-21.3,20.83-23.83,31.09c-.61,2.51-1.24,3.72-1.92,3.72h0c-1,0-2.29-2.36-4-5.34C157.8,186.58,153.37,178.64,146.07,174.62Z"/><path class="cls-1" d="M166.57,214.65c.87,0,1.47-1,1.89-3.28,2.6-13.77,8.22-33.27,27-43.67a86,86,0,0,1,20.06-7.79,17.73,17.73,0,0,0,4.81-2.61c2.07-1.39,4.22-2.84,6.2-2.84a3.79,3.79,0,0,1,.67.06A6.37,6.37,0,0,1,230,156a4.76,4.76,0,0,0,2.93,1.36,3.8,3.8,0,0,0,1.38-.29,3.74,3.74,0,0,0,1.71-1.62,2.71,2.71,0,0,1,2.85-1.58c1.69.14,2.6,1.43,3.56,2.79a7.94,7.94,0,0,0,2.36,2.49,7.27,7.27,0,0,0,3.17.83,2,2,0,0,0,1.69-.63,1.88,1.88,0,0,0,.15-1.68c-.65-2.36-5.71-4.56-9.05-6-1-.43-1.85-.8-2.39-1.09-5-2.64-10-4.88-14.16-6.72-17.72-7.75-33.87-12.48-49.38-14.46a37.21,37.21,0,0,0-4.63-.33c-7.64,0-13.56,3.34-25.34,14.3-2.89,2.69-5.87,5-8.74,7.23-6.45,5-11.54,8.95-11.42,13.92.1,3.93,3.51,8.11,10.72,13.16,11.62,8.13,19.34,20.48,24.44,28.65C163,211.33,165.06,214.65,166.57,214.65Zm-31-37.26c-7.14-5-10.5-9.09-10.6-12.91-.11-4.82,4.92-8.73,11.3-13.68,2.88-2.24,5.86-4.55,8.76-7.25,11.72-10.9,17.6-14.22,25.14-14.22a36.49,36.49,0,0,1,4.59.33c15.48,2,31.61,6.7,49.3,14.44,4.2,1.84,9.16,4.07,14.14,6.7.55.3,1.41.67,2.41,1.1,3.29,1.44,8.27,3.61,8.88,5.83a1.59,1.59,0,0,1-.1,1.42,1.84,1.84,0,0,1-1.45.51,6.94,6.94,0,0,1-3-.8,7.52,7.52,0,0,1-2.26-2.39c-1-1.36-2-2.76-3.78-2.92a3,3,0,0,0-3.13,1.72,3.46,3.46,0,0,1-1.57,1.5,3.39,3.39,0,0,1-1.27.26,4.52,4.52,0,0,1-2.75-1.29,6.55,6.55,0,0,0-2.87-1.51,3.45,3.45,0,0,0-.72-.07c-2.08,0-4.26,1.47-6.37,2.89a17.16,17.16,0,0,1-4.71,2.57,87.08,87.08,0,0,0-20.14,7.81c-18.92,10.47-24.58,30.06-27.19,43.88-.38,2.05-.9,3-1.59,3-1.35,0-3.5-3.45-6.48-8.22C155,197.94,147.23,185.56,135.57,177.39Z"/><path class="cls-1" d="M203.51,340.13a21.52,21.52,0,0,0,16.42-12c2.86-5.93,4.41-16-4.47-30.23-3.81-6.11-8-12.29-12-18.26-11.5-17.07-22.36-33.2-26.85-49.38-5.07-18.3-1-33.4,12.82-47.51,12-12.22,27.78-19.23,43.39-19.23,11.73,0,22.2,4.13,29.47,11.62,8,8.24,12,20.28,11.55,34.84-.1,3.38-.26,6.87-.43,10.56-.61,13.14-1.29,28,.83,40.42,2.44,14.25,8.23,23,17.69,26.91A38.26,38.26,0,0,0,306.22,291a23.78,23.78,0,0,0,19.72-10.11c8.31-11.25,10.3-30.51,4.95-47.93-11.47-37.38-39-59.7-79.81-83.59-31-18.15-57.13-23.75-80.79-27.1a35.78,35.78,0,0,0-5-.38c-9.87,0-14.58,5-20.53,11.4-2.29,2.45-4.65,5-7.58,7.56a59.86,59.86,0,0,1-8.92,6.37c-4.17,2.57-7.77,4.78-11.73,10.7-7.86,11.75,2.66,19,13.79,26.59,5.89,4,12,8.2,15.23,13.14,20.48,31,12.22,64.13-2.35,84.76-4.16,5.89-10.24,11.46-16.68,17.36-7.87,7.21-16,14.66-20.66,23-2,3.58-2.57,6-1.74,7.43.61,1,2,1.55,4.11,1.55h0c3.84,0,9.94-1.59,17-3.44,9.91-2.58,22.24-5.8,33.14-5.8a35.51,35.51,0,0,1,14.71,2.74,53.71,53.71,0,0,1,10.58,6.94c5.34,4.16,10.39,8.09,17.53,8.09A22.29,22.29,0,0,0,203.51,340.13ZM173.23,325a35.32,35.32,0,0,0-14.83-2.76c-10.94,0-23.29,3.22-33.22,5.81-7.05,1.84-13.13,3.43-16.93,3.43h0c-2,0-3.3-.46-3.85-1.4-.78-1.32-.21-3.65,1.74-7.13,4.63-8.28,12.75-15.72,20.61-22.91,6.45-5.91,12.54-11.49,16.72-17.41A79.1,79.1,0,0,0,158,242.7c1.13-16-3-31.21-12.22-45.22-3.29-5-9.4-9.17-15.31-13.22-11-7.55-21.41-14.67-13.71-26.18,3.93-5.86,7.5-8.06,11.63-10.6a59.34,59.34,0,0,0,9-6.41,102.83,102.83,0,0,0,7.61-7.58c5.9-6.31,10.57-11.3,20.31-11.3a35.23,35.23,0,0,1,4.95.38c23.63,3.34,49.75,8.94,80.67,27.06,40.71,23.85,68.24,46.13,79.69,83.41,5.32,17.34,3.35,36.5-4.91,47.67a23.47,23.47,0,0,1-19.48,10,37.83,37.83,0,0,1-14.16-3.09c-9.36-3.81-15.09-12.54-17.51-26.68-2.12-12.36-1.44-27.23-.83-40.35.17-3.7.33-7.19.43-10.58.44-14.63-3.58-26.75-11.63-35.05-7.33-7.55-17.87-11.71-29.69-11.71-15.69,0-31.58,7-43.6,19.32-7.34,7.5-11.88,15.23-13.86,23.65-1.77,7.52-1.46,15.42,1,24.15,4.5,16.23,15.37,32.37,26.89,49.47,4,6,8.18,12.14,12,18.25,8.81,14.13,7.28,24.08,4.45,29.94a21.21,21.21,0,0,1-16.18,11.81,21.71,21.71,0,0,1-2.26.13c-7,0-12-3.9-17.35-8A53.77,53.77,0,0,0,173.23,325Z"/><path class="cls-1" d="M210.07,327.72a11,11,0,0,0,4.56-7.93c1.2-9.83-7.52-24.18-15.36-33.47-9.77-11.6-19.47-24-24.21-36A44.61,44.61,0,0,1,174,246c-1.52-7.11-4.08-19-7.77-19a2.05,2.05,0,0,0-1,.31c-1.53.91-2,2.7-1.38,5.48a42,42,0,0,0,2.62,7.19c1.05,2.45,2,4.56,1.95,5.76,0,3.08-1.48,4.44-2.87,5.76a7.49,7.49,0,0,0-2.62,3.94c-.52,2.38.46,4.17,1.41,5.9s1.79,3.25,1.5,5.38c-.53,3.9-12.91,18-23.83,30.43-9,10.29-16.84,19.18-16.7,20.88a.43.43,0,0,0,.14.3c.75.63,2.1.93,4.15.93h0a93.34,93.34,0,0,0,12.93-1.56c6.31-1,13.46-2.16,19.67-2.16,4.85,0,8.48.69,11.09,2.11,1.43.78,3,1.69,4.68,2.67,7.46,4.33,16.74,9.73,24.6,9.73A12.48,12.48,0,0,0,210.07,327.72ZM173.4,317.35c-2.66-1.45-6.33-2.15-11.23-2.15-6.23,0-13.4,1.15-19.72,2.17a94.24,94.24,0,0,1-12.88,1.55h0c-2,0-3.27-.28-4-.86,0,0,0,0,0-.09-.13-1.58,8-10.84,16.63-20.66,10.95-12.47,23.35-26.6,23.89-30.59.31-2.23-.62-3.93-1.52-5.57s-1.88-3.41-1.39-5.69a7.18,7.18,0,0,1,2.53-3.78c1.44-1.36,2.93-2.77,3-6,0-1.26-.91-3.4-2-5.88a42.58,42.58,0,0,1-2.6-7.14c-.57-2.63-.17-4.31,1.25-5.15a1.67,1.67,0,0,1,.88-.27c3.45,0,6.07,12.23,7.48,18.8a43.13,43.13,0,0,0,1.06,4.41c4.76,12,14.48,24.43,24.26,36,7.8,9.25,16.48,23.5,15.3,33.24a10.77,10.77,0,0,1-4.45,7.73,12.18,12.18,0,0,1-7.35,2.23c-7.78,0-17-5.38-24.45-9.69C176.42,319,174.83,318.12,173.4,317.35Z"/><path class="cls-1" d="M206.65,315.17c.89-8.23-7.94-21.16-12.35-26.13a254,254,0,0,1-16.42-20.71c-3.49-4.79-5.41-7.43-6.65-7.43-.85,0-1.32,1.1-1.61,3.81-2.18,20.36-15.35,31.38-23.22,38-3.44,2.89-5.72,4.79-5.81,6.36a1.63,1.63,0,0,0,.47,1.24,4.69,4.69,0,0,0,3.59,1.12,44.22,44.22,0,0,0,7.22-1A66.94,66.94,0,0,1,164,309c5.82,0,10.51,1.45,14.36,4.44,5.4,4.2,13.41,8.68,19.67,8.68h0a9.54,9.54,0,0,0,5.76-1.71A7.12,7.12,0,0,0,206.65,315.17ZM198,321.8h0c-6.18,0-14.12-4.45-19.49-8.62-3.9-3-8.65-4.5-14.54-4.5a67.18,67.18,0,0,0-12.18,1.45,44,44,0,0,1-7.17,1,4.41,4.41,0,0,1-3.37-1,1.28,1.28,0,0,1-.39-1c.08-1.44,2.44-3.42,5.71-6.15,7.9-6.62,21.12-17.69,23.32-38.17.26-2.45.67-3.54,1.31-3.54,1.09,0,3.09,2.75,6.4,7.31a257.05,257.05,0,0,0,16.45,20.73c4.38,4.94,13.15,17.77,12.27,25.9a6.83,6.83,0,0,1-2.74,5A9.24,9.24,0,0,1,198,321.8Z"/><path class="cls-1" d="M292.09,232.89c-1,15.64,3.46,26.41,8,31.27,2.08,2.22,4.37,3.44,6.43,3.45h0c2.91,0,5.1-2.29,6.16-6.45,6.83-26.77-16.43-55-19.28-57.35-.83-.68-1.39-.77-1.76-.37-.67.73-.46,3.12-.08,7.46A139.8,139.8,0,0,1,292.09,232.89ZM292,203.78a.23.23,0,0,1,.17-.08c.14,0,.41.09.9.49,2.83,2.34,25.89,30.31,19.12,56.85-1,3.91-3,6.07-5.68,6.07h0c-1.92,0-4.08-1.17-6.06-3.3-4.48-4.78-8.9-15.4-7.88-30.89a140.83,140.83,0,0,0-.52-22.07C291.74,207.08,291.5,204.35,292,203.78Z"/><path class="cls-1" d="M414.05,57c-7.82,0-16.49,1.48-25.66,3-11,1.87-22.29,3.8-34.64,3.8-.91,0-1.81,0-2.66,0l-2.18-.06c-1.87,0-3.63-.1-5.33-.1-10.64,0-17.22,2.17-21.57,13.61-2.74,7.23-5.85,15.42-13.32,20.7-2.11,1.5-4.22,2.78-6.09,3.9-4.32,2.61-7.73,4.67-7.86,7.52-.11,2.62,2.53,5.77,8.59,10.21,5.8,4.26,10.58,6.33,14.6,6.33.36,0,.73,0,1.08,0,5.84-.54,9.76-5.37,14.72-11.48a113.41,113.41,0,0,1,7.8-8.92,107.43,107.43,0,0,1,46.15-27.39A77.21,77.21,0,0,1,409,75c17,0,30.14,6.15,41,13.27v-.36c-10.86-7.09-24-13.21-41-13.21a77.73,77.73,0,0,0-21.4,3.15,107.81,107.81,0,0,0-46.28,27.47,111.68,111.68,0,0,0-7.82,8.94c-4.92,6.06-8.8,10.84-14.52,11.37-.34,0-.7,0-1.05,0-3.95,0-8.67-2-14.43-6.27-6-4.38-8.57-7.45-8.46-10,.12-2.68,3.48-4.71,7.72-7.27,1.87-1.13,4-2.41,6.11-3.91,7.54-5.34,10.66-13.58,13.42-20.85C326.57,66.13,333.08,64,343.58,64c1.7,0,3.46.05,5.32.1l2.18.06q1.29,0,2.67,0c12.37,0,23.72-1.94,34.69-3.81,9.16-1.56,17.81-3,25.61-3a44,44,0,0,1,12.07,1.53C433.87,61.08,441.81,64.71,450,69v-.34c-8.16-4.22-16.07-7.82-23.8-10A43.73,43.73,0,0,0,414.05,57Z"/><path class="cls-1" d="M284.35,232c-1.16,15.17,1.84,27.45,8.44,34.57,3.45,3.73,7.69,5.78,11.94,5.78h0c6.06,0,10.91-4.21,12.35-10.72,4.21-19-2.31-36.16-8.52-47.18-7.29-12.94-16.63-22.1-21.12-25.1-1.65-1.09-2.8-1.77-3.51-1.77a.79.79,0,0,0-.61.26c-.58.65-.34,2.51.13,6.19A173.08,173.08,0,0,1,284.35,232Zm-.81-44a.48.48,0,0,1,.39-.16c.63,0,1.79.69,3.34,1.72,10.15,6.77,37.11,37.62,29.51,72-1.41,6.38-6.14,10.49-12,10.49-4.16,0-8.33-2-11.72-5.68-6.55-7.06-9.51-19.26-8.36-34.35a172.62,172.62,0,0,0-.91-38C283.32,190.62,283.06,188.58,283.54,188Z"/><path class="cls-1" d="M278.6,233c-1.16,18.89,2.46,33.8,10.17,42,4,4.25,8.84,6.49,14,6.49h0c9.9,0,18.28-8,20.87-19.93,3.81-17.58.53-34.89-9.74-51.44-10.41-16.77-24.81-27.62-32.47-32.59-3.9-2.53-5.57-3.58-6.21-2.82s-.18,2.46.5,6.08C277.22,188.61,280.31,204.94,278.6,233Zm-3.14-58.09a.45.45,0,0,1,.36-.15c.81,0,2.56,1.14,5.46,3,25.52,16.57,50,47.26,42.07,83.72-2.55,11.78-10.82,19.69-20.57,19.69-5.09,0-9.86-2.21-13.79-6.39-7.66-8.14-11.24-23-10.09-41.78,1.71-28.07-1.38-44.43-2.87-52.28C275.4,177.4,275,175.4,275.46,174.88Z"/><path class="cls-1" d="M163.52,170.23c2.83,0,4.86-2.73,7-6.83,3.8-7.16,11.71-10.62,16-12.48,2.15-.95,3-1.3,2.85-1.89s-.64-.71-3.58-.91c-8.86-.6-28.74,7.85-31,14.21a3.27,3.27,0,0,0,1.14,3.87c3.41,2.82,5.69,4,7.63,4Zm-8.11-7.66c2.09-5.81,20.57-13.78,29.43-13.78.31,0,.61,0,.89,0a14.1,14.1,0,0,1,2.82.35,23.12,23.12,0,0,1-2.32,1.11c-4.34,1.89-12.4,5.42-16.3,12.8-2.46,4.64-4.26,6.45-6.41,6.45-1.76,0-3.91-1.16-7.19-3.87A2.57,2.57,0,0,1,155.41,162.57Z"/><path class="cls-1" d="M172.22,169.87c6.81-12.41,19.26-16.74,29.34-19.13,1-.23,1.06-.72,1-1-.23-2-9.67-5.89-23.76-5.89-1.59,0-3.22.05-4.84.15-6.43.39-21.61,9.37-27.07,16-1.42,1.72-2.06,3.16-1.91,4.26.38,2.76,2.84,4,5.68,5.4,3,1.5,6.43,3.2,8.09,7.17,1,2.3,2.24,3.47,3.77,3.47C165.16,180.32,168.41,176.81,172.22,169.87Zm-13,6.78c-1.73-4.13-5.23-5.87-8.32-7.41-2.72-1.36-5.07-2.53-5.41-5-.13-.95.49-2.3,1.8-3.89,5.39-6.57,20.37-15.45,26.72-15.83,1.6-.1,3.22-.15,4.8-.15,13.85,0,23.08,3.83,23.27,5.45,0,.26-.39.4-.65.46-10.18,2.41-22.75,6.79-29.66,19.37C166,180.08,161.73,182.61,159.23,176.65Z"/><path class="cls-1" d="M303.79,255.63h0c.52,0,1-.37,1.37-1.09,1.95-3.66,1.91-16.29-3.25-24-.68-1-1.65-.86-2.38.4-1.94,3.34-2.75,14,2.53,23.22C302.62,255.14,303.2,255.63,303.79,255.63Zm-3.64-24.33c.25-.45.53-.71.74-.71s.36.22.44.36c4.95,7.36,5.05,19.82,3.22,23.26-.24.46-.51.72-.75.72s-.72-.41-1.12-1.1C297.6,244.92,298.33,234.43,300.15,231.3Z"/><path class="cls-1" d="M368.84,286.31c.71,1,2.46,1.47,5.83,1.47,2.1,0,4.62-.17,7.53-.37,3.6-.24,7.69-.51,11.91-.51,13.38,0,22.39,2.84,28.4,9,5.59,4.3,8.68,11.31,11.4,17.49,3.3,7.52,6.16,14,12.47,14a10.49,10.49,0,0,0,2.1-.22,15,15,0,0,0,1.52-.4v-.52c-.56.18-1.11.32-1.62.43a10.23,10.23,0,0,1-2,.21c-6,0-8.78-6.35-12-13.71-2.75-6.24-5.86-13.31-11.52-17.67-6.09-6.2-15.22-9.09-28.74-9.09-4.24,0-8.33.27-11.94.52-2.91.19-5.41.36-7.5.36-3.11,0-4.83-.4-5.42-1.26a2,2,0,0,1,0-1.93c6.37-17,11.69-38.54,11.18-45.17-.9-11.61-6-22.58-10.94-33.18-6-13-11.74-25.23-8.12-35.45,5-14.2,28-38.85,40.5-40.55a15,15,0,0,1,2-.12c9.7,0,26.79,6.94,46.16,18.43v-.58c-19.35-11.44-36.43-18.35-46.16-18.35a14.48,14.48,0,0,0-2.06.13c-12.6,1.71-35.82,26.56-40.9,40.88-3.69,10.41,2.05,22.75,8.13,35.82,4.92,10.56,10,21.49,10.9,33,.45,5.81-4.32,26.71-11.14,45A2.49,2.49,0,0,0,368.84,286.31Z"/><path class="cls-1" d="M416.26,444.59c-.57,0-1.54.06-2.76.14-2.06.13-4.88.31-7.69.31-6.94,0-10.58-1.14-10.81-3.39-.35-3.39,7.7-8.43,13-11.76a47.78,47.78,0,0,0,4.8-3.22,101.15,101.15,0,0,0,18.22-21.54c3.61-5.62,6.27-11.67,9.08-18.08a35.13,35.13,0,0,1,9.87-13.3v-.37a35.27,35.27,0,0,0-10.14,13.55c-2.81,6.4-5.46,12.44-9.06,18a101.38,101.38,0,0,1-18.17,21.48,46.22,46.22,0,0,1-4.76,3.18c-5.71,3.58-13.54,8.47-13.17,12.05.25,2.46,3.89,3.66,11.11,3.66,2.82,0,5.64-.18,7.71-.31,1.21-.08,2.18-.14,2.74-.14A74.53,74.53,0,0,1,444.6,450h.81A74.54,74.54,0,0,0,416.26,444.59Z"/><path class="cls-1" d="M223,28.61a22.34,22.34,0,0,0,4.75-.61c1.84-.41,3.58-.8,5.16-1,2.68-.36,5.27-.51,7.57-.64a15.79,15.79,0,0,0,7.22-2.16c9.31-5.45,13.2-16.58,14.44-21.11.3-1.09.6-2.11.89-3.08h-.31c-.29,1-.58,1.94-.87,3-1.23,4.5-5.09,15.54-14.3,20.93a15.51,15.51,0,0,1-7.1,2.12c-2.29.13-4.89.28-7.58.64-1.59.22-3.34.6-5.19,1a22.25,22.25,0,0,1-4.68.6c-2.21,0-3.75-.57-4.71-1.74-1.42-1.72-1.62-4.82-.63-9.73l.16-.8c1.33-6.76,3.62-12,7.23-16h-.39c-3.55,4.08-5.81,9.27-7.14,16l-.16.8c-1,5-.78,8.18.7,10C219.1,28,220.71,28.61,223,28.61Z"/><path class="cls-1" d="M414.05,63.93c-7.23,0-15.62,1.43-24.5,2.95-11.24,1.92-22.87,3.9-35.8,3.9q-1.42,0-2.82,0l-2.21-.06c-1.81,0-3.53-.1-5.14-.1-14,0-14.7,7.7-15.44,15.86-.4,4.47-.81,9.09-3.28,13-.88,1.41-3.24,3.18-5.74,5.06-5.33,4-11.37,8.54-8.47,12.79a5.37,5.37,0,0,0,4.46,2.75,6.66,6.66,0,0,0,3-.83c4.73-2.44,9.78-9.65,13.84-15.45,2.31-3.3,4.3-6.14,5.39-6.79a6.68,6.68,0,0,1,3.51-.77l1.28,0c.43,0,.87,0,1.31,0a6.81,6.81,0,0,0,5-1.63c1.89-1.72,2.13-4,2.36-6.11.21-2,.4-3.78,1.69-5.32,3.9-4.66,17.58-7.92,26.63-10.07,2.67-.64,5-1.18,6.68-1.68A84.37,84.37,0,0,1,409,68.08c16.72,0,30.09,5.48,41,12v-.59c-10.92-6.52-24.29-12-41-12A85,85,0,0,0,385.64,71c-1.7.49-4,1-6.65,1.67-9.66,2.3-22.89,5.45-26.9,10.24-1.39,1.66-1.6,3.65-1.81,5.58-.23,2.16-.44,4.21-2.2,5.8a6.33,6.33,0,0,1-4.62,1.5c-.43,0-.86,0-1.29,0l-1.3,0a7.15,7.15,0,0,0-3.77.84c-1.18.71-3.1,3.45-5.54,6.93-3.81,5.45-9,12.92-13.65,15.3-2.82,1.45-5.05.88-6.85-1.76-2.63-3.86,3.21-8.24,8.36-12.11,2.65-2,4.94-3.71,5.87-5.19,2.52-4,2.94-8.72,3.35-13.25.75-8.26,1.39-15.4,14.94-15.4,1.61,0,3.32,0,5.13.1l2.2.06c.94,0,1.89,0,2.84,0,13,0,24.62-2,35.89-3.91,8.85-1.51,17.22-2.94,24.41-2.94a36.85,36.85,0,0,1,10.12,1.26C432.34,68,441,72.17,450,77V76.4c-9-4.75-17.55-8.86-25.69-11.19A37.1,37.1,0,0,0,414.05,63.93Z"/><path class="cls-1" d="M225,18.06c.77,1.49,2.42,2.25,4.93,2.25a16.61,16.61,0,0,0,2.13-.16c2.93-.39,5.67-.55,8.1-.69a9.16,9.16,0,0,0,4.13-1.23c5.4-3.16,11.8-12.47,12-18.23h-.5c-.22,5.53-6.58,14.77-11.77,17.8a8.4,8.4,0,0,1-2,.84,8.73,8.73,0,0,1-2,.32c-2.42.14-5.17.3-8.12.7-3.45.46-5.69-.16-6.55-1.83-1.16-2.27.22-6.63,3.62-11.4A21.24,21.24,0,0,1,236.65,0H235.6a21.35,21.35,0,0,0-7,6.14C225,11.13,223.68,15.59,225,18.06Z"/><path class="cls-1" d="M383.94,273.28c1.86,2.68,5.79,3,11.23,3.39l1.82.15c1.72.14,3.52.2,5.42.26,8.84.31,18.86.65,27.91,8.89l.11.1c5,4.39,8,12.13,10.64,19s4.94,12.82,8.59,12.82l.34,0v-.31a2,2,0,0,1-.34,0c-3.44,0-5.7-5.85-8.31-12.63s-5.65-14.63-10.72-19.08l-.11-.09c-9.13-8.32-19.21-8.66-28.1-9-1.9-.06-3.7-.12-5.41-.26l-1.82-.14c-5.36-.42-9.22-.71-11-3.27s-1.45-7,.77-14.7a56,56,0,0,0,2.33-20c-1-12.85-6.37-24.4-11.57-35.57-5.42-11.65-10.54-22.66-7.86-30.22,4.46-12.59,26-34.81,34.92-36a7.44,7.44,0,0,1,1.06-.06c7.45,0,24.3,6.2,46.16,19.58v-.35c-21.84-13.35-38.69-19.53-46.16-19.53a8,8,0,0,0-1.1.06c-9,1.23-30.68,23.57-35.17,36.22-2.72,7.67,2.43,18.74,7.89,30.46C380.64,214.1,386,225.61,387,238.41a55.67,55.67,0,0,1-2.32,19.92C382.4,266.27,382.18,270.75,383.94,273.28Z"/><path class="cls-1" d="M201.6,363.71c14.89-1.69,32.62-19.38,37.37-32.9,8.26-23.48-6.41-42.38-20.6-60.65-13.7-17.65-26.63-34.31-20.34-54.6,5.48-17.67,23.18-27.21,37.05-27.21,7.48,0,13.94,2.65,18.21,7.47,5.07,5.72,7.06,14.41,5.76,25.13-4.47,36.83-5.8,77.12,35.26,89A49.6,49.6,0,0,0,308.14,312c17.28,0,28.32-9.91,34.53-18.21,11.91-15.93,16.05-39.76,10.29-59.3-4.88-16.56-14.49-32.62-29.36-49.1-22.12-24.5-52.23-45.57-92.07-64.4l-1.72-.82c-16.76-7.92-34.09-16.12-52.34-20.64-1.08-.27-2.28-.59-3.56-.93-5.64-1.49-12.65-3.36-18.67-3.36a18.54,18.54,0,0,0-6.2.92c-2.6.93-4.06,2.71-5.48,4.43a14.83,14.83,0,0,1-3.71,3.56,39.26,39.26,0,0,1-5.07,2.19c-3.37,1.3-6.87,2.65-8,3.94-2.13,2.5-1.55,4-1,5.46a4.52,4.52,0,0,1,.29,3.5l-.39,1.16c-3,8.91-3,8.91-10,10.93-1.35.39-3,.87-5,1.51-5.75,1.83-8.11,4.65-10.39,7.38a20,20,0,0,1-6.54,5.68h-.28c-3.6,0-30.9,1.8-33,8.51-.57,1.81.66,3.78,3.65,5.84a14,14,0,0,0,8.38,2.89c.88,0,1.67-.08,2.44-.15a18,18,0,0,1,1.87-.13c2.2,0,4.42.63,7.47,8.13.75,1.85,1.33,3.37,1.81,4.62,2.36,6.18,2.43,6.26,8.43,8.82,1.49.64,3.34,1.43,5.69,2.51,7.72,3.56,9.3,7.61,11.3,12.73a46,46,0,0,0,4.53,9.21,66.46,66.46,0,0,0,8,9.53c4.89,5.09,9.51,9.9,11,17.93,2.55,13.91-5,27.19-13.54,39.47-4.14,5.95-12.65,12.89-21.66,20.23C84.6,308.49,67.26,322.61,67.2,335.7c0,7.47,1.88,13.2,5.7,17,4.16,4.18,10.48,6.22,19.33,6.22,12.82,0,28.59-4.33,42.5-8.15,11-3,20.4-5.59,26.45-5.59a12,12,0,0,1,3.44.41c5.83,1.73,10.46,5.43,14.93,9,5.93,4.75,11.54,9.23,19.55,9.23A21.22,21.22,0,0,0,201.6,363.71ZM164.82,345a12.62,12.62,0,0,0-3.64-.44c-6.14,0-15.64,2.6-26.64,5.62-13.87,3.8-29.58,8.11-42.31,8.12-8.65,0-14.82-2-18.84-6-3.68-3.7-5.53-9.26-5.49-16.54C68,323,85.16,308.93,100.34,296.57c9-7.37,17.59-14.33,21.79-20.37,8.62-12.41,16.24-25.84,13.65-40-1.51-8.23-6.2-13.11-11.16-18.28a66.69,66.69,0,0,1-8-9.43,45.84,45.84,0,0,1-4.46-9.09c-2.06-5.26-3.68-9.42-11.66-13.1-2.36-1.09-4.21-1.88-5.7-2.52-5.78-2.47-5.78-2.47-8.06-8.43-.48-1.26-1.06-2.77-1.81-4.63-2.91-7.16-5.18-8.57-8.12-8.57a19.14,19.14,0,0,0-1.94.13c-.75.07-1.53.15-2.37.15a13.3,13.3,0,0,1-8-2.76c-2.7-1.88-3.84-3.58-3.38-5.06,1.83-5.83,27.27-8,32.33-8h.25l.08-.32.15.3a20.56,20.56,0,0,0,6.87-5.91c2.32-2.78,4.51-5.39,10.07-7.17,2-.63,3.66-1.11,5-1.5,7.27-2.1,7.36-2.21,10.48-11.38l.4-1.16a5.19,5.19,0,0,0-.31-4c-.53-1.38-1-2.57.86-4.75,1-1.16,4.55-2.54,7.69-3.75a40.25,40.25,0,0,0,5.19-2.24A15.65,15.65,0,0,0,144.1,101c1.42-1.73,2.76-3.35,5.17-4.22a18,18,0,0,1,6-.88c5.93,0,12.89,1.85,18.49,3.34,1.28.34,2.48.66,3.57.93,18.18,4.5,35.48,12.68,52.21,20.6l1.72.81c39.75,18.8,69.8,39.81,91.85,64.23,14.8,16.41,24.36,32.38,29.21,48.84,5.7,19.34,1.6,42.91-10.18,58.68-6.12,8.18-17,17.93-34,17.93a49,49,0,0,1-13.64-2C254,297.55,255.31,257.58,259.74,221c1.33-10.92-.72-19.8-5.93-25.67-4.4-5-11.05-7.71-18.73-7.71-14.12,0-32.14,9.71-37.72,27.71-6.4,20.63,7.25,38.22,20.46,55.22,14.07,18.13,28.62,36.88,20.49,60-4.68,13.34-22.14,30.78-36.79,32.45a22.1,22.1,0,0,1-2.42.14c-7.77,0-13.28-4.41-19.11-9.08C175.46,350.46,170.78,346.72,164.82,345Z"/><path class="cls-1" d="M218.82,36.4a50.38,50.38,0,0,0,10.47-1.57c1.69-.37,3.29-.73,4.58-.9,2.41-.33,4.76-.46,7-.6,4.72-.27,9.19-.52,12.74-2.54,2.86-1.63,4.94-4.31,6.37-8.19A143.58,143.58,0,0,1,270.25,0h-.34a144,144,0,0,0-10.17,22.5c-1.41,3.81-3.45,6.44-6.24,8-3.48,2-7.92,2.23-12.61,2.5-2.28.14-4.63.27-7.06.6-1.3.17-2.91.53-4.61.91a50.48,50.48,0,0,1-10.4,1.56c-3.31,0-5.65-.8-7.16-2.46-3.68-4-1.84-13.23-.85-18.17l.16-.79A43.88,43.88,0,0,1,216.44,0h-.35a44.39,44.39,0,0,0-5.42,14.63l-.15.78c-1,5-2.86,14.29.92,18.43C213,35.56,215.42,36.4,218.82,36.4Z"/><path class="cls-1" d="M296.23,0h-.69a41.36,41.36,0,0,0-3.11,3.63c-11,15-15.92,28.83-14.95,42.31.37,5.24-.27,8.71-2,10.61a6,6,0,0,1-4.72,1.79c-2.91,0-6.5-1.11-10.29-2.28a57.7,57.7,0,0,0-10.38-2.54,72,72,0,0,0-7.74-.41c-8.48,0-16.53,1.35-25,2.78l-4.32.72h-.11a60.8,60.8,0,0,1-9.68,1C197,57.66,193,55.59,191,51.33c-4.12-8.89-3-19.59-1.95-29,.13-1.27.27-2.53.39-3.77A89.12,89.12,0,0,1,193.08,0h-.53A90.41,90.41,0,0,0,189,18.47c-.12,1.24-.25,2.5-.39,3.77-1,9.51-2.19,20.29,2,29.31,2.07,4.45,6.21,6.61,12.66,6.61a61.57,61.57,0,0,0,9.76-1l.11,0,4.32-.72c8.5-1.42,16.54-2.77,25-2.77a71.25,71.25,0,0,1,7.69.41,57.23,57.23,0,0,1,10.28,2.52c3.83,1.18,7.45,2.3,10.44,2.3a6.42,6.42,0,0,0,5.09-2c1.8-2,2.48-5.59,2.09-11-1-13.35,3.91-27.08,14.86-42A42.84,42.84,0,0,1,296.23,0Z"/><path class="cls-1" d="M293,75.8c-3.39,2.4-8,3.56-14.19,3.56-7.24,0-15.33-1.62-22.47-3-4.2-.84-8.18-1.64-11.42-2a108.62,108.62,0,0,0-11.12-.57c-9.74,0-22.24,1.32-26.43,7.61-1.83,2.74-1.9,6.17-.23,10.22.79,1.89,2.83,2.93,4.8,3.92A11.44,11.44,0,0,1,216,98.33a19,19,0,0,1,2.29,5.42c.81,2.61,1.64,5.3,3.53,6.89a12,12,0,0,0,8.11,2.89,34.94,34.94,0,0,0,6.65-.88,34.22,34.22,0,0,1,6.55-.87,11.61,11.61,0,0,1,5.5,1.26c4,2,5.65,4.8,7.27,7.47,2.11,3.48,4.1,6.76,10.66,8.3,13.74,3.21,17.5,6.57,26.59,14.68,1.17,1,2.43,2.17,3.81,3.38a55.7,55.7,0,0,1,8,9.32,63.5,63.5,0,0,0,7,8.43,31.05,31.05,0,0,0,9.74,6.16c4.14,1.89,8.05,3.67,11.6,9.76l.56,1c4.47,7.72,9,14.87,11.76,14.87a1.47,1.47,0,0,0,1.14-.52c1-1.09,1.27-4,.83-8.9-.26-2.86-2.33-5.43-4.34-7.91-2.16-2.67-4.2-5.19-4.08-8,.15-3.35,2.17-5,4.31-6.73a13.48,13.48,0,0,0,4.14-4.64c2.28-4.91,2.83-9.3,3.37-13.55.74-5.92,1.44-11.5,6.73-17.82a76.79,76.79,0,0,1,37.43-24.06A49.65,49.65,0,0,1,409,102.18c15,0,25.72,8.15,37.1,16.77l3.9,2.94V121c-1.17-.87-2.33-1.75-3.48-2.62-11.47-8.7-22.31-16.91-37.52-16.91a50.34,50.34,0,0,0-14,2.11,77.41,77.41,0,0,0-37.76,24.28c-5.43,6.47-6.14,12.16-6.9,18.18-.53,4.2-1.07,8.54-3.3,13.34a12.86,12.86,0,0,1-3.95,4.39c-2.16,1.77-4.41,3.59-4.57,7.25-.13,3.05,2.09,5.8,4.24,8.45,1.94,2.4,3.94,4.88,4.18,7.54.52,5.75-.06,7.72-.64,8.36a.83.83,0,0,1-.63.29c-2.76,0-8.64-10.17-11.16-14.52l-.55-1c-3.66-6.29-7.68-8.11-11.92-10.05a30.69,30.69,0,0,1-9.55-6,63.78,63.78,0,0,1-6.94-8.34,56.37,56.37,0,0,0-8.12-9.44c-1.38-1.2-2.64-2.33-3.81-3.37-9.19-8.2-13-11.59-26.9-14.84-6.28-1.47-8.19-4.64-10.22-8-1.67-2.75-3.39-5.6-7.55-7.74a12.45,12.45,0,0,0-5.82-1.33,35.36,35.36,0,0,0-6.69.88,33.92,33.92,0,0,1-6.51.87,11.29,11.29,0,0,1-7.66-2.73c-1.73-1.46-2.54-4-3.31-6.55a19.21,19.21,0,0,0-2.4-5.63,11.68,11.68,0,0,0-4.31-3c-2-1-3.78-1.91-4.47-3.57-1.58-3.82-1.53-7,.16-9.56,4-6,16.28-7.3,25.85-7.3a107.92,107.92,0,0,1,11,.56c3.22.35,7.18,1.14,11.37,2,7.17,1.43,15.29,3.06,22.6,3.06,6.3,0,11.08-1.2,14.59-3.69,8.75-6.18,6.24-15.51,3.82-24.54-2.6-9.64-5.28-19.61,5.5-26.11a9.89,9.89,0,0,1,5.13-1.18c6.45,0,15.53,3.53,24.31,6.94,7.65,3,14.87,5.77,19.57,5.88l2,0h0c10.1,0,20.31-1.74,30.18-3.43s20.05-3.42,30.12-3.42a70,70,0,0,1,19.43,2.56A128.09,128.09,0,0,1,450,39.2v-.77a128.91,128.91,0,0,0-16.33-6,70.63,70.63,0,0,0-19.62-2.59c-10.13,0-20.35,1.75-30.23,3.43s-20,3.42-30.07,3.42c-.69,0-1.35,0-2,0-4.58-.11-11.75-2.89-19.33-5.84-8.85-3.43-18-7-24.57-7a10.4,10.4,0,0,0-5.49,1.28c-11.23,6.78-8.48,17-5.82,26.89C299,61.21,301.33,69.9,293,75.8Z"/><path class="cls-1" d="M207.93,50.26a50.16,50.16,0,0,0,8.3-.88,172.73,172.73,0,0,1,29.15-2.29c2.65,0,5.37,0,8.33.13,1,0,1.92.05,2.73.05,4.89,0,7.74-.59,9.84-2,2.52-1.74,4-4.79,5-10.19,2.26-12.4,7.24-23.54,15.64-35h-.37C278.19,11.47,273.23,22.6,271,35c-1,5.31-2.43,8.3-4.87,10-2.05,1.41-4.85,2-9.67,2-.81,0-1.7,0-2.72,0-3-.09-5.69-.13-8.34-.13a172.35,172.35,0,0,0-29.2,2.3,50.55,50.55,0,0,1-8.25.87c-6,0-10.35-2-11.86-11.87-1.44-9.43-.16-19.41,1.16-26.12a65.73,65.73,0,0,1,3.53-12h-.32a64.49,64.49,0,0,0-3.5,11.92c-1.33,6.73-2.61,16.74-1.17,26.21C197.09,46.75,200.61,50.26,207.93,50.26Z"/><path class="cls-1" d="M212.05,42.75h0a18.19,18.19,0,0,0,3-.27,179.76,179.76,0,0,1,25.29-2.33c2,0,4,0,5.92.05,1.27,0,2.47.06,3.64.06,3.59,0,7.32-.28,10.19-2.29,2.39-1.68,4.08-4.45,5.19-8.48A102.66,102.66,0,0,1,278.42,0h-.36A103,103,0,0,0,265,29.41c-1.09,4-2.75,6.68-5.07,8.31-2.81,2-6.48,2.24-10,2.24-1.17,0-2.36,0-3.63-.06-1.89,0-3.87-.1-5.94,0A180.34,180.34,0,0,0,215,42.18c-4.57.77-8-.15-10.09-2.73-4.83-5.87-2.23-19-.83-26.12A54.32,54.32,0,0,1,208.46,0h-.34a55,55,0,0,0-4.31,13.27c-1.41,7.13-4,20.39.89,26.37A9,9,0,0,0,212.05,42.75Z"/></svg>