<?xml version="1.0" standalone="no"?>
<!DOCTYPE svg PUBLIC "-//W3C//DTD SVG 20010904//EN"
 "http://www.w3.org/TR/2001/REC-SVG-20010904/DTD/svg10.dtd">
<svg version="1.0" xmlns="http://www.w3.org/2000/svg"
 width="450.000000pt" height="450.000000pt" viewBox="0 0 450.000000 450.000000"
 preserveAspectRatio="xMidYMid meet">

<g transform="translate(0.000000,450.000000) scale(0.100000,-0.100000)"
fill="#000000" stroke="none">
<path d="M2853 3642 c-56 -30 -68 -57 -68 -147 0 -89 24 -157 73 -208 23 -24
27 -37 27 -87 0 -51 -4 -63 -28 -88 -23 -24 -39 -30 -86 -35 -102 -9 -126 -41
-144 -192 l-11 -92 -255 -6 c-140 -4 -332 -7 -426 -7 l-172 0 -11 89 c-19 153
-43 186 -147 196 -33 4 -73 11 -88 17 -63 24 -76 129 -28 222 51 96 53 219 4
277 -39 46 -78 61 -173 66 -101 5 -145 -12 -172 -67 -37 -73 -16 -209 43 -282
78 -98 43 -228 -62 -228 -55 0 -105 -23 -122 -57 -18 -34 -37 -131 -37 -189
l0 -41 -82 -5 c-52 -3 -96 -11 -116 -22 -117 -61 -135 -461 -24 -534 15 -10
54 -17 108 -20 l84 -4 -6 -142 c-3 -77 -7 -146 -9 -152 -2 -8 -38 -13 -95 -15
-91 -4 -92 -4 -125 -41 -52 -56 -70 -129 -70 -278 0 -107 3 -132 22 -172 28
-62 61 -78 157 -78 41 0 77 -3 79 -7 2 -5 -3 -140 -10 -302 -8 -161 -11 -297
-6 -302 4 -4 224 -9 488 -11 l480 -3 0 155 c0 85 -3 224 -7 308 l-8 152 275 2
c151 1 312 3 358 3 l82 0 -3 -100 c-2 -55 -7 -181 -11 -279 -4 -99 -6 -190 -3
-203 4 -22 9 -23 78 -23 40 0 75 -4 78 -9 9 -14 603 -23 977 -15 l349 7 0 53
0 53 -64 -6 c-87 -8 -94 1 -130 160 -16 70 -32 127 -35 127 -3 0 -6 14 -7 30
-1 17 -3 32 -5 34 -2 2 -22 0 -44 -5 l-40 -8 38 2 c27 2 36 -1 33 -9 -3 -7 0
-15 7 -18 9 -5 9 -7 0 -12 -8 -4 -8 -12 3 -32 19 -38 19 -158 -1 -166 -8 -3
-14 -2 -14 2 3 20 -3 32 -16 32 -10 0 -15 -10 -15 -30 0 -23 -4 -30 -20 -30
-16 0 -20 7 -20 30 0 24 -4 30 -21 30 -15 0 -19 -4 -15 -16 5 -12 -1 -15 -27
-13 -62 4 -74 0 -79 -25 -4 -20 1 -25 33 -35 23 -7 75 -10 131 -7 52 3 100 1
108 -4 18 -12 20 -12 -150 -12 -72 0 -110 -3 -90 -7 l35 -7 -54 -11 c-47 -9
-56 -8 -71 7 -10 10 -23 19 -29 21 -12 4 -30 182 -31 299 0 33 -3 41 -10 30
-5 -8 -10 -84 -10 -167 l0 -153 -25 0 c-24 0 -25 3 -26 58 -1 31 -2 104 -3
162 l-2 105 -208 3 c-191 2 -207 4 -202 20 3 9 22 87 42 172 20 85 38 157 40
160 3 2 77 6 164 8 l160 4 0 159 c0 88 0 162 0 167 0 4 -54 8 -120 10 -68 1
-120 7 -120 12 0 5 18 86 41 180 l41 170 68 0 c106 0 100 -10 100 160 0 82 3
155 6 164 9 24 51 19 69 -8 9 -13 30 -81 47 -152 45 -186 40 -178 95 -171 96
11 140 108 130 292 -3 55 -10 111 -15 125 -9 23 -10 20 -18 -30 -17 -103 -57
-67 -71 63 -5 46 -3 61 11 76 17 18 17 20 -3 31 -12 6 -60 14 -106 17 l-85 6
0 37 c0 51 -19 149 -36 185 -20 42 -45 55 -122 62 -82 7 -115 23 -132 63 -18
43 -8 130 18 167 44 61 55 189 23 260 -28 60 -81 86 -191 90 -68 3 -92 0 -117
-15z m362 -921 c21 -42 9 -150 -23 -199 -14 -22 -16 -22 -25 -6 -5 9 -12 56
-15 104 -4 79 -3 89 16 108 11 11 17 24 14 28 -4 4 -1 4 6 0 6 -4 19 -20 27
-35z m-87 -62 c2 -25 -2 -58 -8 -74 l-11 -28 -15 22 c-25 35 -29 94 -9 115 26
26 40 14 43 -35z m437 31 c3 -5 1 -10 -4 -10 -6 0 -11 5 -11 10 0 6 2 10 4 10
3 0 8 -4 11 -10z m-760 -42 c49 -43 50 -155 3 -205 -46 -49 -131 -38 -168 22
-69 111 70 265 165 183z m-1664 -19 c55 -58 37 -179 -31 -214 -79 -41 -160 16
-160 112 0 69 62 131 133 132 20 1 38 -9 58 -30z m621 -270 c13 -5 36 -28 53
-50 l30 -40 48 51 c27 27 52 50 56 50 10 0 56 -51 70 -78 18 -33 13 -54 -24
-106 -19 -27 -35 -54 -35 -59 0 -6 16 -34 35 -63 19 -29 35 -60 35 -70 0 -21
-63 -100 -92 -115 -19 -10 -27 -5 -73 47 l-52 58 -34 -51 c-46 -70 -72 -74
-121 -21 -57 62 -57 71 1 138 28 32 51 61 51 65 0 4 -20 33 -45 65 -25 32 -45
65 -45 73 0 20 88 117 105 117 8 0 24 -5 37 -11z m825 -256 c-4 -54 -7 -122
-7 -150 l0 -53 -156 0 c-143 0 -155 1 -150 18 24 79 36 147 36 209 l0 73 142
0 141 0 -6 -97z m482 -325 c0 -7 -4 -22 -9 -33 -7 -17 -9 -15 -9 13 -1 17 4
32 9 32 6 0 10 -6 9 -12z m-365 -52 c58 -24 81 -98 52 -168 -17 -39 -28 -49
-73 -68 -125 -49 -174 173 -52 233 41 20 33 20 73 3z m-1582 -37 c40 -48 34
-144 -12 -191 -33 -32 -86 -38 -125 -12 -32 21 -58 88 -49 128 21 99 130 143
186 75z m2393 -949 c3 -5 -1 -10 -9 -10 -9 0 -16 5 -16 10 0 6 4 10 9 10 6 0
13 -4 16 -10z"/>
<path d="M3600 1843 c0 -31 4 -70 9 -87 30 -97 41 -146 43 -187 2 -35 7 -48
22 -55 14 -6 23 -24 29 -53 15 -76 31 -32 34 96 3 80 -1 136 -11 173 l-14 55
-1 -42 c-1 -24 -5 -43 -11 -43 -5 0 -9 -5 -7 -12 4 -19 -30 -21 -37 -1 -4 10
-10 47 -13 82 -5 53 -3 66 10 76 16 11 16 13 -1 27 -9 8 -25 18 -34 21 -16 6
-18 -1 -18 -50z"/>
<path d="M3386 1700 c2 -85 4 -161 4 -169 0 -8 3 -11 7 -8 8 9 3 229 -7 287
-5 28 -7 -13 -4 -110z"/>
<path d="M3558 1523 c7 -3 16 -2 19 1 4 3 -2 6 -13 5 -11 0 -14 -3 -6 -6z"/>
</g>
</svg>
